<svg width="215" height="62" viewBox="0 0 215 62" fill="none" xmlns="http://www.w3.org/2000/svg">
<path d="M214.334 55.3424C214.334 58.7488 211.576 61.508 208.162 61.508H6.1801C2.76889 61.508 0 58.7488 0 55.3424V6.17366C0 2.76889 2.76889 0 6.1801 0H208.161C211.576 0 214.333 2.76889 214.333 6.17366L214.334 55.3424Z" fill="black"/>
<path d="M47.0682 30.416C47.0214 25.2275 51.3165 22.7033 51.5129 22.5857C49.0804 19.0394 45.3102 18.5548 43.9853 18.5162C40.8189 18.1829 37.7473 20.411 36.1342 20.411C34.489 20.411 32.005 18.5484 29.328 18.6031C25.883 18.6561 22.66 20.6507 20.8924 23.7481C17.2447 30.0633 19.9652 39.344 23.4601 44.4488C25.2083 46.9487 27.2513 49.7402 29.9251 49.642C32.5411 49.5342 33.5183 47.9743 36.6752 47.9743C39.803 47.9743 40.7207 49.642 43.4477 49.5793C46.2552 49.5342 48.0227 47.0679 49.7099 44.5453C51.7301 41.6798 52.5415 38.8579 52.5737 38.7129C52.5078 38.6904 47.1212 36.6346 47.0682 30.416Z" fill="white"/>
<path d="M41.9175 15.158C43.3244 13.3985 44.2872 11.0046 44.0198 8.57544C41.9834 8.66559 39.4367 9.98402 37.9702 11.7049C36.6726 13.2214 35.5136 15.7069 35.813 18.0445C38.1006 18.2151 40.4493 16.8901 41.9175 15.158Z" fill="white"/>
<path fill-rule="evenodd" clip-rule="evenodd" d="M77.5578 28.9819H80.0948L75.2847 14.1184H72.3306L67.5447 28.9819H70.0158L71.3391 24.6144H76.1685L77.5578 28.9819ZM74.4912 18.9028L75.7485 22.7841H71.7578L72.9925 18.9028C73.3161 17.668 73.551 16.7344 73.6976 16.1017H73.7411C74.1097 17.5731 74.3592 18.5052 74.4912 18.9028Z" fill="white"/>
<path fill-rule="evenodd" clip-rule="evenodd" d="M90.7035 27.813C91.6887 26.7537 92.1813 25.3145 92.1813 23.4906C92.1813 21.8582 91.7596 20.5462 90.9128 19.5465C90.0661 18.5468 89.0133 18.0461 87.7478 18.0461C86.13 18.0461 84.9243 18.6853 84.1306 19.9635H84.0872L83.9535 18.2651H81.8591C81.9172 19.4709 81.9478 20.6461 81.9478 21.7938V33.3491H84.3286V27.7035H84.3721C84.9903 28.7193 86.0061 29.2247 87.4163 29.2247C88.7251 29.2247 89.8213 28.7547 90.7035 27.813ZM89.0511 20.9989C89.5212 21.675 89.7563 22.5362 89.7563 23.5795C89.7563 24.7111 89.5051 25.6223 89.006 26.3129C88.5069 27.0035 87.8083 27.3496 86.9117 27.3496C86.1469 27.3496 85.5256 27.0808 85.0475 26.5448C84.5693 26.0086 84.3311 25.3487 84.3311 24.5695V22.7842C84.3311 22.5926 84.3681 22.3511 84.4406 22.0565C84.5887 21.4255 84.901 20.9136 85.3791 20.524C85.8556 20.1344 86.3901 19.9397 86.9777 19.9397C87.8453 19.9397 88.536 20.2938 89.0511 20.9989Z" fill="white"/>
<path fill-rule="evenodd" clip-rule="evenodd" d="M103.139 27.813C104.124 26.7537 104.616 25.3145 104.616 23.4906C104.616 21.8582 104.195 20.5462 103.348 19.5465C102.501 18.5468 101.448 18.0461 100.183 18.0461C98.5651 18.0461 97.3593 18.6853 96.5657 19.9635H96.5223L96.3886 18.2651H94.2942C94.3522 19.4709 94.3828 20.6461 94.3828 21.7938V33.3491H96.7637V27.7035H96.8072C97.4254 28.7193 98.4411 29.2247 99.8514 29.2247C101.16 29.2247 102.256 28.7547 103.139 27.813ZM101.486 20.9989C101.956 21.675 102.191 22.5362 102.191 23.5795C102.191 24.7111 101.942 25.6223 101.441 26.3129C100.942 27.0035 100.243 27.3496 99.3468 27.3496C98.5821 27.3496 97.9607 27.0808 97.4826 26.5448C97.0045 26.0086 96.7662 25.3487 96.7662 24.5695V22.7842C96.7662 22.5926 96.8033 22.3511 96.8757 22.0565C97.0237 21.4255 97.336 20.9136 97.8141 20.524C98.2908 20.1344 98.8251 19.9397 99.4127 19.9397C100.28 19.9397 100.971 20.2938 101.486 20.9989Z" fill="white"/>
<path d="M120.72 24.8139C120.72 26.0776 120.281 27.1078 119.4 27.9015C118.431 28.7692 117.084 29.2022 115.351 29.2022C113.753 29.2022 112.468 28.8948 111.498 28.2765L112.05 26.2917C113.093 26.9259 114.241 27.2415 115.492 27.2415C116.39 27.2415 117.088 27.0386 117.589 26.633C118.09 26.2289 118.339 25.6864 118.339 25.0087C118.339 24.405 118.133 23.8979 117.721 23.4857C117.309 23.0736 116.625 22.6905 115.672 22.3364C113.069 21.3641 111.766 19.9441 111.766 18.0735C111.766 16.8517 112.222 15.8504 113.135 15.0696C114.046 14.2905 115.26 13.8977 116.775 13.8977C118.127 13.8977 119.252 14.1327 120.149 14.6028L119.555 16.5442C118.716 16.0886 117.768 15.8601 116.709 15.8601C115.87 15.8601 115.216 16.0661 114.745 16.4783C114.349 16.8469 114.151 17.2944 114.151 17.8224C114.151 18.4116 114.378 18.8962 114.835 19.2777C115.231 19.6318 115.95 20.0134 116.995 20.4255C118.275 20.939 119.215 21.5427 119.819 22.2333C120.418 22.924 120.72 23.7852 120.72 24.8139Z" fill="white"/>
<path d="M128.437 20.0489H125.814V25.2534C125.814 26.5767 126.276 27.2383 127.201 27.2383C127.629 27.2383 127.981 27.2013 128.26 27.1288L128.327 28.9367C127.855 29.1121 127.238 29.2006 126.473 29.2006C125.534 29.2006 124.798 28.9141 124.27 28.341C123.741 27.7679 123.477 26.8053 123.477 25.4515V20.0489H121.908V18.2636H123.477V16.2996L125.814 15.5945V18.262H128.437V20.0489Z" fill="white"/>
<path fill-rule="evenodd" clip-rule="evenodd" d="M138.761 27.5924C139.701 26.5332 140.172 25.1794 140.172 23.5342C140.172 21.9323 139.717 20.6235 138.804 19.611C137.85 18.5662 136.586 18.0447 135.012 18.0447C133.379 18.0447 132.082 18.5726 131.118 19.6319C130.156 20.6896 129.675 22.0499 129.675 23.7112C129.675 25.2985 130.141 26.6137 131.075 27.6585C132.009 28.7032 133.262 29.2249 134.835 29.2249C136.467 29.2249 137.775 28.6807 138.761 27.5924ZM137.065 21.0679C137.49 21.7746 137.703 22.6246 137.703 23.6114C137.703 24.5982 137.481 25.4547 137.044 26.1758C136.529 27.0451 135.815 27.4814 134.905 27.4814C133.979 27.4814 133.256 27.0532 132.742 26.1984C132.317 25.4917 132.103 24.6433 132.103 23.6549C132.103 22.6391 132.316 21.7746 132.742 21.0679C133.241 20.2131 133.969 19.7848 134.925 19.7848C135.851 19.7848 136.564 20.2131 137.065 21.0679Z" fill="white"/>
<path d="M148.111 20.3596C147.876 20.3161 147.627 20.2935 147.361 20.2935C146.522 20.2935 145.876 20.609 145.421 21.2418C145.023 21.8003 144.825 22.5054 144.825 23.3586V28.9817H142.444L142.467 21.6378C142.467 20.403 142.437 19.2778 142.379 18.2635H144.452L144.541 20.3144H144.607C144.856 19.6093 145.251 19.0427 145.796 18.6146C146.325 18.2329 146.901 18.043 147.517 18.043C147.737 18.043 147.936 18.0575 148.111 18.0865V20.3596Z" fill="white"/>
<path fill-rule="evenodd" clip-rule="evenodd" d="M158.517 24.1974C158.578 23.9029 158.606 23.5438 158.606 23.1156C158.606 21.7762 158.29 20.6526 157.658 19.743C156.864 18.5953 155.695 18.0237 154.151 18.0237C152.579 18.0237 151.328 18.5953 150.402 19.743C149.521 20.8168 149.079 22.1609 149.079 23.7789C149.079 25.4257 149.554 26.7377 150.502 27.7149C151.451 28.692 152.757 29.1814 154.418 29.1814C155.799 29.1814 156.997 28.9608 158.012 28.5197L157.637 26.8664C156.769 27.2045 155.807 27.3735 154.748 27.3735C153.791 27.3735 153.013 27.1241 152.409 26.6234C151.749 26.0647 151.404 25.2551 151.373 24.1974H158.517ZM155.874 20.667C156.197 21.1836 156.352 21.7938 156.337 22.4989H151.374C151.447 21.7777 151.682 21.1612 152.08 20.646C152.566 19.9988 153.198 19.6753 153.975 19.6753C154.831 19.6753 155.462 20.0053 155.874 20.667Z" fill="white"/>
<path fill-rule="evenodd" clip-rule="evenodd" d="M70.9882 36.625C71.1476 36.4576 71.2297 36.2499 71.2297 36.0003C71.2297 35.7605 71.1508 35.5561 70.9962 35.3823C70.8401 35.2131 70.6357 35.1262 70.3862 35.1262C70.1463 35.1262 69.9451 35.2131 69.7777 35.3823C69.6118 35.5561 69.5281 35.7622 69.5281 36.0003C69.5281 36.2419 69.6071 36.4463 69.7696 36.6185C69.9322 36.7875 70.1318 36.8745 70.3717 36.8745C70.6195 36.8745 70.8256 36.7924 70.9882 36.625ZM69.5284 48.0869H71.2139H71.2156V37.5618H69.5284V48.0869Z" fill="white"/>
<path d="M80.8657 48.0866H79.1786V43.7401C79.1786 42.4008 78.6699 41.7311 77.6492 41.7311C77.1486 41.7311 76.7446 41.9162 76.4307 42.2848C76.1199 42.6534 75.9621 43.0865 75.9621 43.5872V48.0882H74.2751V42.6696C74.2751 42.0031 74.2542 41.2803 74.2139 40.4995H75.6965L75.7754 41.6843H75.8221C76.0185 41.3157 76.3115 41.0115 76.6962 40.7699C77.1534 40.485 77.6653 40.3418 78.2255 40.3418C78.9339 40.3418 79.5231 40.5719 79.9915 41.0308C80.5744 41.5926 80.8657 42.4298 80.8657 43.5437V48.0866Z" fill="white"/>
<path fill-rule="evenodd" clip-rule="evenodd" d="M89.0768 48.087H90.5756C90.5337 47.4623 90.5143 46.7797 90.5143 46.0409V37.0146H88.8272V41.3724H88.7951C88.3894 40.685 87.6762 40.3405 86.6557 40.3405C85.73 40.3405 84.9492 40.6962 84.3133 41.403C83.6581 42.1628 83.3313 43.1577 83.3313 44.386C83.3313 45.5322 83.6323 46.4626 84.236 47.1806C84.8397 47.8986 85.5995 48.2576 86.5156 48.2576C87.6601 48.2576 88.4731 47.7956 88.9512 46.8683H88.998L89.0768 48.087ZM88.8268 43.6195V44.8848C88.8268 45.4258 88.6643 45.8893 88.3407 46.2741C88.0059 46.6911 87.5615 46.8987 87.0078 46.8987C86.3912 46.8987 85.9002 46.6492 85.5348 46.1501C85.1886 45.6817 85.0164 45.0715 85.0164 44.3214C85.0164 43.5406 85.1967 42.9031 85.5573 42.4024C85.9196 41.9019 86.4122 41.6507 87.0399 41.6507C87.4779 41.6507 87.8545 41.7892 88.1685 42.066C88.4808 42.3429 88.6853 42.6826 88.7802 43.0883C88.8107 43.2235 88.8268 43.4005 88.8268 43.6195Z" fill="white"/>
<path fill-rule="evenodd" clip-rule="evenodd" d="M95.0892 38.9674C95.2856 38.7806 95.3854 38.5375 95.3854 38.2348C95.3854 37.9418 95.2872 37.7037 95.0892 37.5153C94.8912 37.3301 94.6466 37.2351 94.3552 37.2351C94.0622 37.2351 93.8191 37.3301 93.6211 37.5153C93.4231 37.7037 93.3232 37.9418 93.3232 38.2348C93.3232 38.5246 93.4198 38.7677 93.613 38.9609C93.8046 39.1525 94.0413 39.2491 94.323 39.2491C94.6369 39.2491 94.8912 39.1557 95.0892 38.9674ZM93.5123 48.0868H95.1994V40.4982H93.5123V48.0868Z" fill="white"/>
<path d="M102.21 41.9823C102.042 41.9502 101.867 41.9356 101.678 41.9356C101.086 41.9356 100.629 42.1594 100.304 42.6053C100.023 43.0013 99.8819 43.502 99.8819 44.1057V48.0883H98.1948L98.2109 42.8902C98.2109 42.0145 98.19 41.2176 98.1497 40.5012H99.6162L99.6791 41.9534H99.7257C99.9011 41.4527 100.183 41.0502 100.568 40.7492C100.943 40.4788 101.348 40.3435 101.786 40.3435C101.942 40.3435 102.084 40.3548 102.208 40.3757V41.9823H102.21Z" fill="white"/>
<path fill-rule="evenodd" clip-rule="evenodd" d="M105.941 38.9674C106.137 38.7806 106.237 38.5375 106.237 38.2348C106.237 37.9418 106.139 37.7037 105.941 37.5153C105.743 37.3301 105.498 37.2351 105.207 37.2351C104.914 37.2351 104.671 37.3301 104.473 37.5153C104.275 37.7037 104.175 37.9418 104.175 38.2348C104.175 38.5246 104.271 38.7677 104.465 38.9609C104.656 39.1525 104.893 39.2491 105.175 39.2491C105.488 39.2491 105.743 39.1557 105.941 38.9674ZM104.363 48.0868H106.05V40.4982H104.363V48.0868Z" fill="white"/>
<path d="M115.641 48.0866H113.952V43.7401C113.952 42.4008 113.443 41.7311 112.424 41.7311C111.924 41.7311 111.52 41.9162 111.204 42.2848C110.893 42.6534 110.736 43.0865 110.736 43.5872V48.0882H109.05V42.6696C109.05 42.0031 109.029 41.2803 108.989 40.4995H110.472L110.551 41.6843H110.597C110.792 41.3157 111.085 41.0115 111.471 40.7699C111.927 40.485 112.44 40.3418 112.999 40.3418C113.709 40.3418 114.298 40.5719 114.767 41.0308C115.348 41.5926 115.641 42.4298 115.641 43.5437V48.0866Z" fill="white"/>
<path d="M165.304 13.7209C164.671 15.9408 163.923 17.7648 163.055 19.1895L161.577 19.3441C162.223 17.5797 162.687 15.7799 162.967 13.9415L165.304 13.7209Z" fill="white"/>
<path fill-rule="evenodd" clip-rule="evenodd" d="M172.893 28.9815H175.009C174.95 28.0994 174.919 27.1367 174.919 26.092V13.3455H172.539V19.4998H172.495C171.923 18.5291 170.916 18.0445 169.474 18.0445C168.166 18.0445 167.062 18.5452 166.166 19.5449C165.24 20.617 164.776 22.0223 164.776 23.7562C164.776 25.374 165.204 26.6892 166.057 27.7033C166.908 28.7192 167.982 29.2247 169.275 29.2247C170.893 29.2247 172.04 28.5695 172.716 27.2623H172.782L172.893 28.9815ZM172.538 22.6745V24.4598C172.538 25.2261 172.311 25.8796 171.851 26.4254C171.378 27.013 170.75 27.3076 169.967 27.3076C169.097 27.3076 168.403 26.9533 167.887 26.2482C167.398 25.5866 167.155 24.7254 167.155 23.6678C167.155 22.565 167.412 21.6603 167.92 20.9551C168.43 20.25 169.128 19.8959 170.013 19.8959C170.634 19.8959 171.165 20.0907 171.608 20.4803C172.049 20.8698 172.338 21.3512 172.471 21.9242C172.514 22.1142 172.538 22.3654 172.538 22.6745Z" fill="white"/>
<path fill-rule="evenodd" clip-rule="evenodd" d="M183.811 28.9817H185.948C185.845 28.349 185.793 27.4959 185.793 26.4237V22.4764C185.793 19.5208 184.391 18.043 181.589 18.043C180.135 18.043 178.908 18.3505 177.91 18.9687L178.396 20.535C179.203 20.0053 180.133 19.7414 181.191 19.7414C182.673 19.7414 183.413 20.4465 183.413 21.8583V22.0564C181.429 22.0419 179.889 22.3798 178.793 23.0705C177.696 23.7611 177.149 24.7624 177.149 26.0696C177.149 26.9373 177.429 27.6649 177.987 28.2524C178.606 28.9013 179.422 29.2233 180.436 29.2233C181.79 29.2233 182.834 28.7307 183.568 27.7455H183.634L183.811 28.9817ZM183.475 23.6452V25.2984C183.475 25.4611 183.462 25.5995 183.431 25.7186C183.328 26.2322 183.054 26.6556 182.609 26.9855C182.163 27.3172 181.677 27.483 181.151 27.483C180.684 27.483 180.294 27.343 179.988 27.0628C179.682 26.7843 179.528 26.3658 179.528 25.8071C179.528 24.3213 180.844 23.6018 183.475 23.6452Z" fill="white"/>
<path d="M198.034 28.9817H195.652V22.8452C195.652 20.952 194.933 20.0053 193.491 20.0053C192.785 20.0053 192.212 20.2662 191.771 20.7861C191.329 21.3061 191.109 21.9195 191.109 22.6246V28.9817H188.728V21.3287C188.728 20.3886 188.697 19.3647 188.64 18.2635H190.736L190.845 19.9394H190.912C191.189 19.4194 191.602 18.9864 192.145 18.6451C192.793 18.2442 193.514 18.043 194.308 18.043C195.307 18.043 196.14 18.3666 196.8 19.0138C197.624 19.8073 198.036 20.9922 198.036 22.565V28.9817H198.034Z" fill="white"/>
</svg>
