<svg width="49" height="49" viewBox="0 0 61 61" fill="none" xmlns="http://www.w3.org/2000/svg"><path fill-rule="evenodd" clip-rule="evenodd" d="M40.108 17.293a1.531 1.531 0 0 1 2.091-.56l7.502 4.33c.732.423.983 1.36.56 2.092l-4.33 7.502a1.531 1.531 0 0 1-2.653-1.531l3.566-6.176-6.176-3.565a1.531 1.531 0 0 1-.56-2.092z" fill="#29FF63"/><path fill-rule="evenodd" clip-rule="evenodd" d="M11.675 43.074c-1.662-6.204 1.922-12.8 8.207-14.485l27.178-7.282a1.531 1.531 0 1 1 .793 2.958l-27.178 7.282c-4.579 1.227-7.286 6.09-6.041 10.734l.495 1.85a1.531 1.531 0 1 1-2.958.792l-.495-1.85z" fill="#29FF63"/></svg>