<svg width="1720" height="343" viewBox="0 0 1720 343" fill="none" xmlns="http://www.w3.org/2000/svg">
<path fill-rule="evenodd" clip-rule="evenodd" d="M1720 343L1623.97 292.979C1529.37 242.958 1284.63 235.354 1094 242.5C903.367 249.646 763.967 271.542 573.333 314.417C382.7 357.292 190.633 328.708 96.0332 314.417L-0.000125819 300.125L-0.000152056 -3.27383e-05L96.0332 -4.11338e-05C190.633 -4.9404e-05 382.7 -6.6195e-05 573.333 -8.28607e-05C763.967 -9.95264e-05 956.033 -0.000116317 1146.67 -0.000132983C1337.3 -0.000149649 1529.37 -0.00016644 1623.97 -0.00017471L1720 -0.000183105L1720 343Z" fill="url(#paint0_linear_1_602)"/>
<defs>
<linearGradient id="paint0_linear_1_602" x1="1538.59" y1="135.126" x2="1353.38" y2="-360.875" gradientUnits="userSpaceOnUse">
<stop offset="0.0001" stop-color="#44C0E9"/>
<stop offset="1" stop-color="#0F4C81"/>
</linearGradient>
</defs>
</svg>
