<svg width="52" height="52" viewBox="0 0 52 52" fill="none" xmlns="http://www.w3.org/2000/svg">
<rect width="52" height="52" rx="26" fill="#F3F3F3"/>
<path fill-rule="evenodd" clip-rule="evenodd" d="M17.3295 17.3295C17.7688 16.8902 18.4812 16.8902 18.9205 17.3295L26 24.409L33.0795 17.3295C33.5188 16.8902 34.2312 16.8902 34.6705 17.3295C35.1098 17.7688 35.1098 18.4812 34.6705 18.9205L27.591 26L34.6705 33.0795C35.1098 33.5188 35.1098 34.2312 34.6705 34.6705C34.2312 35.1098 33.5188 35.1098 33.0795 34.6705L26 27.591L18.9205 34.6705C18.4812 35.1098 17.7688 35.1098 17.3295 34.6705C16.8902 34.2312 16.8902 33.5188 17.3295 33.0795L24.409 26L17.3295 18.9205C16.8902 18.4812 16.8902 17.7688 17.3295 17.3295Z" fill="#333333"/>
</svg>
