<svg width="707" height="518" viewBox="0 0 707 518" fill="none" xmlns="http://www.w3.org/2000/svg">
<path opacity="0.05" fill-rule="evenodd" clip-rule="evenodd" d="M257.379 902.069C331.715 952.361 373.807 953.276 449.82 902.069V490.891L455.185 485.525C493.207 447.504 494.372 413.881 495.33 386.244C495.998 366.961 496.566 350.592 509.481 337.677C522.035 325.123 543.88 323.716 568.49 322.131L568.492 322.13C577.182 321.571 586.218 320.989 595.311 319.886C625.057 319.056 652.245 305.475 672.629 285.091C718.494 239.226 718.453 178.032 672.528 132.107C626.602 86.1806 565.408 86.1399 519.543 132.005C499.159 152.389 485.578 179.577 484.748 209.323C483.645 218.416 483.063 227.452 482.504 236.142L482.504 236.144C480.918 260.754 479.511 282.599 466.957 295.153C454.042 308.068 437.673 308.636 418.39 309.304L418.382 309.304C416.358 309.374 414.301 309.446 412.213 309.533C410.795 307.992 409.389 306.484 408.004 305C394.842 290.892 383.668 278.916 383.668 260.651C383.668 242.897 398.12 226.456 414.401 207.933L414.402 207.932C420.151 201.391 426.129 194.59 431.779 187.381C452.225 165.76 461.848 136.932 461.848 108.104C461.848 43.2417 418.548 0 353.599 0C288.65 0 245.351 43.2417 245.351 108.104C245.351 136.932 254.973 165.76 275.42 187.381C281.07 194.59 287.047 201.391 292.797 207.932L292.797 207.933C309.079 226.456 323.53 242.897 323.53 260.651C323.53 278.916 312.357 290.892 299.194 305C297.811 306.483 296.405 307.989 294.989 309.529C292.895 309.442 290.834 309.37 288.804 309.3C269.521 308.632 253.152 308.064 240.237 295.149C227.683 282.595 226.276 260.75 224.691 236.14C224.131 227.449 223.549 218.413 222.446 209.319C221.616 179.573 208.035 152.385 187.651 132.001C141.786 86.1359 80.5924 86.1767 34.6665 132.103C-11.2593 178.028 -11.3001 239.222 34.5646 285.087C54.9489 305.471 82.1371 319.052 111.883 319.882C120.977 320.985 130.013 321.567 138.704 322.127C163.314 323.712 185.159 325.119 197.713 337.673C210.628 350.588 211.196 366.957 211.864 386.24C212.822 413.877 213.987 447.5 252.009 485.521L257.379 490.891V902.069Z" fill="white"/>
</svg>
