<svg width="30" height="30" viewBox="0 0 30 30" fill="none" xmlns="http://www.w3.org/2000/svg">
<path fill-rule="evenodd" clip-rule="evenodd" d="M26.25 9.99988H24.9225C24.2914 5.00033 20.0392 1.25122 15 1.25122C9.96078 1.25122 5.70863 5.00033 5.0775 9.99988H3.75C2.36929 9.99988 1.25 11.1192 1.25 12.4999V17.4999C1.25 18.8806 2.36929 19.9999 3.75 19.9999H7.5V11.2499C7.5 7.10774 10.8579 3.74988 15 3.74988C19.1421 3.74988 22.5 7.10774 22.5 11.2499V18.7499C22.5 22.892 19.1421 26.2499 15 26.2499V28.7499C20.0397 28.7498 24.292 25 24.9225 19.9999H26.25C27.6307 19.9999 28.75 18.8806 28.75 17.4999V12.4999C28.75 11.1192 27.6307 9.99988 26.25 9.99988ZM3.75 17.5V12.5H5V17.5H3.75ZM25 12.5V17.5H26.25V12.5H25ZM11.0251 17.6115L9.70011 19.7315C11.2885 20.7267 13.1257 21.2531 15.0001 21.2502C16.8745 21.2531 18.7117 20.7267 20.3001 19.7315L18.9751 17.6115C17.7838 18.3578 16.4059 18.7525 15.0001 18.7502C13.5943 18.7525 12.2165 18.3578 11.0251 17.6115Z" fill="white"/>
</svg>
