<svg width="95" height="126" viewBox="0 0 95 126" fill="none" xmlns="http://www.w3.org/2000/svg">
<path fill-rule="evenodd" clip-rule="evenodd" d="M34.2744 120.216C44.1809 126.919 49.7905 127.041 59.9205 120.216V65.4197L60.6355 64.7047C65.7025 59.6377 65.8578 55.1569 65.9855 51.4738C66.0746 48.904 66.1502 46.7225 67.8714 45.0013C69.5444 43.3283 72.4556 43.1408 75.7354 42.9295C76.8936 42.8549 78.0978 42.7774 79.3096 42.6304C83.2739 42.5198 86.8972 40.7099 89.6137 37.9934C95.726 31.8811 95.7206 23.7259 89.6002 17.6055C83.4797 11.4851 75.3246 11.4797 69.2123 17.5919C66.4958 20.3085 64.6859 23.9318 64.5753 27.896C64.4283 29.1079 64.3507 30.312 64.2761 31.4703C64.0649 34.7501 63.8773 37.6613 62.2043 39.3343C60.4831 41.0555 58.3017 41.1311 55.7318 41.2202C55.4618 41.2295 55.1874 41.2391 54.9088 41.2506C54.7202 41.0456 54.5331 40.8451 54.3489 40.6476L54.3479 40.6466C52.5937 38.7665 51.1047 37.1705 51.1047 34.7363C51.1047 32.3703 53.0306 30.1792 55.2004 27.7106L55.2004 27.7106C55.9666 26.8389 56.7633 25.9325 57.5162 24.9717C60.2411 22.0904 61.5234 18.2486 61.5234 14.4068C61.5234 5.76271 55.753 0 47.0974 0C38.4419 0 32.6715 5.76271 32.6715 14.4068C32.6715 18.2486 33.9538 22.0904 36.6787 24.9717C37.4317 25.9326 38.2283 26.8389 38.9945 27.7106C41.1643 30.1792 43.0902 32.3703 43.0902 34.7363C43.0902 37.1705 41.6012 38.7665 39.847 40.6466C39.6627 40.8442 39.4754 41.0449 39.2866 41.2501C39.0076 41.2385 38.7328 41.2289 38.4624 41.2196C35.8925 41.1305 33.7111 41.0549 31.9899 39.3337C30.3169 37.6607 30.1293 34.7494 29.9181 31.4697C29.8435 30.3114 29.7659 29.1073 29.6189 27.8954C29.5083 23.9312 27.6984 20.3079 24.9819 17.5913C18.8696 11.479 10.7145 11.4845 4.59405 17.6049C-1.52637 23.7253 -1.5318 31.8805 4.58048 37.9927C7.29704 40.7093 10.9203 42.5191 14.8846 42.6298C16.0964 42.7767 17.3006 42.8543 18.4588 42.9289C21.7386 43.1402 24.6498 43.3277 26.3228 45.0007C28.044 46.7219 28.1196 48.9034 28.2087 51.4732C28.3364 55.1563 28.4917 59.6371 33.5587 64.7041L34.2744 65.4198V120.216Z" fill="white"/>
</svg>
