<svg width="130" height="130" fill="none" xmlns="http://www.w3.org/2000/svg"><rect width="129.871" height="129.871" rx="7.83" fill="#0F4C81"/><path fill-rule="evenodd" clip-rule="evenodd" d="M55.785 106.012c7.099 4.802 11.118 4.89 18.377 0V66.747l.512-.512c3.63-3.63 3.742-6.841 3.833-9.48.064-1.842.118-3.405 1.352-4.639 1.199-1.198 3.285-1.333 5.635-1.484.83-.053 1.692-.109 2.56-.214 2.841-.08 5.438-1.377 7.384-3.323 4.38-4.38 4.376-10.223-.01-14.609-4.385-4.385-10.229-4.39-14.608-.01-1.947 1.947-3.244 4.543-3.323 7.384-.105.868-.16 1.73-.214 2.56-.152 2.351-.286 4.437-1.485 5.636-1.233 1.233-2.796 1.287-4.638 1.351l-.59.022-.401-.433c-1.257-1.347-2.324-2.49-2.324-4.235 0-1.695 1.38-3.265 2.934-5.034.55-.625 1.12-1.274 1.66-1.963 1.953-2.064 2.871-4.817 2.871-7.57 0-6.194-4.135-10.323-10.337-10.323s-10.337 4.13-10.337 10.323c0 2.753.92 5.506 2.872 7.57.54.689 1.11 1.338 1.66 1.963 1.554 1.769 2.934 3.339 2.934 5.034 0 1.744-1.067 2.888-2.324 4.235l-.401.433c-.2-.009-.397-.015-.591-.022-1.842-.064-3.405-.118-4.638-1.351-1.199-1.2-1.333-3.285-1.484-5.635-.054-.83-.11-1.693-.215-2.562-.08-2.84-1.376-5.436-3.322-7.383-4.38-4.38-10.224-4.376-14.61.01-4.385 4.385-4.389 10.229-.009 14.609 1.947 1.946 4.543 3.243 7.383 3.322.869.106 1.732.161 2.561.215 2.35.151 4.437.285 5.635 1.484 1.234 1.234 1.288 2.797 1.352 4.638.091 2.64.203 5.85 3.833 9.48l.513.514v39.264z" fill="#fff"/></svg>