<svg width="211" height="63" viewBox="0 0 211 63" fill="none" xmlns="http://www.w3.org/2000/svg">
<rect x="0.179932" width="210.345" height="62.5766" rx="6.26556" fill="black"/>
<path fill-rule="evenodd" clip-rule="evenodd" d="M73.255 21.7923V24.2642H79.1293C79.0477 25.4292 78.5748 26.5322 77.7888 27.393C76.6043 28.6101 74.9639 29.2689 73.2706 29.2077C69.656 29.2077 66.7267 26.2659 66.7267 22.6372C66.7267 19.0083 69.656 16.0665 73.2706 16.0665C74.9219 16.0487 76.5143 16.6901 77.6952 17.85L79.4089 16.1292C77.7576 14.4786 75.5063 13.5748 73.177 13.6261C68.2075 13.6261 64.179 17.671 64.179 22.6606C64.179 27.6502 68.2075 31.6951 73.177 31.6951C75.5195 31.7802 77.7864 30.8583 79.4089 29.1607C80.8561 27.5902 81.629 25.5107 81.5594 23.3724C81.569 22.8482 81.527 22.3241 81.4346 21.808L73.255 21.7923ZM95.6742 23.6352C96.5647 21.4562 98.6744 20.0309 101.02 20.0245C102.563 19.9948 104.051 20.5935 105.146 21.6842C106.241 22.7748 106.849 24.2643 106.832 25.8128C106.844 28.1681 105.443 30.2986 103.279 31.2102C101.116 32.1218 98.6192 31.6345 96.9547 29.9758C95.289 28.3171 94.7838 25.8142 95.6742 23.6352ZM97.5934 27.4109C98.2186 28.7206 99.5771 29.5138 101.02 29.411V29.3484C101.914 29.328 102.762 28.9495 103.376 28.2972C103.991 27.6449 104.321 26.7729 104.291 25.8754C104.287 24.4234 103.4 23.1212 102.054 22.5919C100.706 22.0627 99.175 22.414 98.1898 23.4777C97.2057 24.5414 96.9693 26.1011 97.5934 27.4109ZM88.3373 20.0246C85.9912 20.0309 83.8803 21.4562 82.9898 23.6352C82.0994 25.8142 82.6046 28.3171 84.2703 29.9758C85.936 31.6345 88.4333 32.1218 90.5958 31.2103C92.7583 30.2988 94.1612 28.1681 94.148 25.8129C94.166 24.2671 93.5587 22.7801 92.4679 21.6899C91.3758 20.5998 89.8914 19.9991 88.3529 20.0246H88.3373ZM84.9123 27.4109C85.5375 28.7206 86.896 29.5138 88.3384 29.411V29.3484C89.2325 29.328 90.0809 28.9495 90.6953 28.2972C91.3098 27.6449 91.6398 26.7729 91.6098 25.8754C91.6062 24.4234 90.7193 23.1212 89.3729 22.5919C88.0252 22.0627 86.4939 22.414 85.5099 23.4777C84.5247 24.5414 84.2882 26.1011 84.9123 27.4109ZM130 20.0088C132.263 20.0774 134.242 21.5584 134.955 23.7164L135.265 24.3266L127.476 27.5336C127.964 28.6419 129.073 29.3413 130.28 29.3015C131.437 29.3177 132.52 28.7242 133.132 27.737L135.109 29.0511C134.035 30.6728 132.22 31.6429 130.28 31.6324C128.741 31.6498 127.26 31.0381 126.179 29.9377C125.097 28.8371 124.508 27.3425 124.547 25.7971C124.473 24.295 125.015 22.8285 126.044 21.736C127.074 20.6435 128.502 20.0198 130 20.0088ZM127.056 25.6563C126.983 24.7975 127.265 23.9464 127.837 23.3039C128.409 22.6613 129.221 22.2842 130.079 22.2614C130.981 22.2055 131.828 22.6989 132.228 23.513L127.056 25.6563ZM123.269 31.2883H120.822L120.775 14.2049H123.269V31.2883ZM116.647 21.3227H116.553C115.755 20.4519 114.615 19.9773 113.438 20.0242C110.236 20.0242 107.641 22.6298 107.641 25.8438C107.641 29.0579 110.236 31.6634 113.438 31.6634C114.62 31.7174 115.763 31.235 116.553 30.3494H116.631V31.1941C116.631 33.4156 115.446 34.6046 113.514 34.6046C112.217 34.5713 111.067 33.7561 110.602 32.5395L108.389 33.4782C109.242 35.5722 111.277 36.9348 113.53 36.9199C116.522 36.9199 119.031 35.1365 119.031 30.85V20.3371H116.569L116.647 21.3227ZM110.544 25.8442C110.544 27.668 111.926 29.1926 113.734 29.3641L113.672 29.3484C114.563 29.3335 115.408 28.9511 116.009 28.2912C116.611 27.6313 116.915 26.7518 116.851 25.8597C116.919 24.9725 116.626 24.0953 116.039 23.4289C115.451 22.7626 114.62 22.3639 113.734 22.3241C111.926 22.4956 110.544 24.0202 110.544 25.8442ZM146.922 14.189H140.844V31.2881H143.385V24.8115H146.968C149.894 24.8115 152.265 22.4301 152.265 19.4925C152.265 16.5548 149.894 14.1734 146.968 14.1734L146.922 14.189ZM143.337 22.4494H146.92V22.4338C148.53 22.4338 149.834 21.124 149.834 19.5083C149.834 17.8927 148.53 16.5829 146.92 16.5829H143.337V22.4494ZM162.66 19.9933C160.759 19.874 158.971 20.901 158.11 22.6057L160.369 23.5445C160.83 22.6973 161.748 22.2057 162.707 22.293C164.037 22.1745 165.216 23.1494 165.356 24.4831V24.6395C164.537 24.2159 163.627 24.0009 162.707 24.0138C160.276 24.0138 157.799 25.3436 157.799 27.8466C157.846 28.9099 158.32 29.9086 159.113 30.6158C159.905 31.3228 160.948 31.6783 162.005 31.6012C163.343 31.7225 164.637 31.0824 165.356 29.943V31.2882H167.801V24.7177C167.832 21.6671 165.588 19.9776 162.66 19.9776V19.9933ZM160.322 27.9246C160.322 28.9572 161.506 29.3795 162.347 29.3795V29.3482C163.885 29.2976 165.155 28.1282 165.339 26.5948C164.627 26.2259 163.832 26.0531 163.032 26.0943C161.786 26.0943 160.322 26.6105 160.322 27.9246ZM176.76 20.3374L173.846 27.7527H173.752L170.73 20.3374H167.987L172.506 30.6937L170.013 36.482H172.662L179.58 20.3374H176.76ZM156.411 31.2884H153.854L153.87 14.1893H156.411V31.2884Z" fill="white"/>
<path d="M16.4467 11.7955C15.9391 12.4074 15.6823 13.1906 15.7291 13.9857V48.5905C15.6823 49.3855 15.9391 50.1689 16.4467 50.7807L16.5559 50.8902L35.8756 31.5228V31.0535L16.5403 11.7017L16.4467 11.7955Z" fill="url(#paint0_linear_1_357)"/>
<path d="M42.2502 37.9838L35.8623 31.5228V31.0535L42.2502 24.5925L42.4062 24.6707L50.041 29.0511C52.2227 30.2713 52.2227 32.3051 50.041 33.5566L42.4062 37.9056L42.2502 37.9838Z" fill="url(#paint1_linear_1_357)"/>
<path d="M42.4352 37.8901L35.8601 31.2883L16.4456 50.7808C17.3636 51.5906 18.7245 51.63 19.6869 50.8747L42.4352 37.8901Z" fill="url(#paint2_linear_1_357)"/>
<path d="M42.4364 24.6863L19.6881 11.7017C18.7196 10.929 17.3384 10.9686 16.4155 11.7956L35.8612 31.2882L42.4364 24.6863Z" fill="url(#paint3_linear_1_357)"/>
<path opacity="0.2" d="M42.248 37.7493L19.6557 50.6556C18.7317 51.3493 17.4632 51.3493 16.5392 50.6556L16.4456 50.7651L16.5548 50.8747C17.4776 51.5735 18.7497 51.5735 19.6713 50.8747L42.4508 37.89L42.248 37.7493Z" fill="black"/>
<path opacity="0.12" fill-rule="evenodd" clip-rule="evenodd" d="M42.2505 37.7493L50.0413 33.322C50.8465 32.923 51.4226 32.1719 51.6002 31.2883C51.5138 32.2594 50.9209 33.1114 50.0413 33.5254L42.4065 37.9057L42.2505 37.7493ZM15.7292 48.6765C15.7544 49.3647 16.0064 50.0286 16.4492 50.5621L16.5584 50.6872L16.4492 50.7968C15.956 50.2029 15.7004 49.4474 15.7292 48.6765ZM15.729 48.6762C15.729 48.6528 15.7302 48.6296 15.7314 48.6063V48.3716C15.7254 48.4734 15.7242 48.5751 15.729 48.6762Z" fill="black"/>
<path opacity="0.25" d="M19.6568 11.9207L50.0398 29.2543C50.8451 29.6534 51.4199 30.4044 51.5975 31.2881C51.5171 30.3113 50.9231 29.4521 50.0398 29.0354L19.6568 11.7016C17.4751 10.4501 15.7146 11.4983 15.7146 14.0013V14.236C15.7614 11.7329 17.5063 10.6848 19.6724 11.9207H19.6568Z" fill="white"/>
<path fill-rule="evenodd" clip-rule="evenodd" d="M98.9184 42.0828L95.335 51.6257H96.6743L97.6091 49.0444H101.567L102.502 51.6257H103.873L100.289 42.0828H98.9184ZM84.0053 51.6256V42.1296H85.563L90.2372 49.5293V42.114H91.4372V51.6256H90.1592L85.329 43.8035V51.6256H84.0053ZM67.3339 42.1295V51.6256L70.2009 51.6568C71.5005 51.728 72.7714 51.2518 73.7062 50.3427C75.4523 48.383 75.4523 45.4189 73.7062 43.4592C72.7774 42.5486 71.5137 42.0668 70.2165 42.1295H67.3339ZM64.2188 45.133H65.3408L65.3096 42.1293H64.2188V45.133ZM68.5329 50.4525H70.2166C71.1742 50.5053 72.1127 50.1667 72.8183 49.5139C73.9416 48.4905 74.3016 46.8681 73.7172 45.4628C73.1327 44.0575 71.7311 43.1737 70.2166 43.2561H68.5329V50.4525ZM77.9281 43.3032H82.2447V42.1299H76.7136V51.6258H82.2447V50.4995H77.9281V47.4802H81.8235V46.3225H77.9281V43.3032ZM101.144 47.9024L99.5855 43.6002L98.0278 47.9024H101.144ZM105.088 42.1299V51.6258H110.431V50.4838H106.303V42.1299H105.088ZM111.74 51.6258V42.1299H112.955V51.6258H111.74ZM115.136 42.1296V51.6256H116.476V43.8035L121.306 51.6256H122.585V42.114H121.369V49.5293L116.695 42.1296H115.136Z" fill="white"/>
<path fill-rule="evenodd" clip-rule="evenodd" d="M98.918 42.0826L98.8179 42.0449L98.9181 42.0829V42.2032H99.0003L95.5075 51.5049H95.3347V51.6258L95.3346 51.6258V51.6256L95.2516 51.5943L95.2218 51.583L98.8052 42.0401L98.8052 42.0401L98.8352 41.9622H98.918V42.0826ZM95.2516 51.5943L95.2218 51.5831L95.1606 51.7461H95.3346V51.6258L95.2516 51.5943ZM96.674 51.6254V51.7459H95.3347V51.6258L95.4462 51.6681L95.5075 51.5049H96.5898L96.5611 51.5842L96.674 51.6254ZM97.6928 49.1647L96.7867 51.6666L96.7869 51.6666L96.7581 51.7459H96.6741V51.6254L96.674 51.6254V51.5049H96.5898L97.4959 49.003L97.6086 49.0442V49.044L97.6087 49.0441V49.1647H97.6928ZM101.482 49.1647H97.6928L97.7216 49.0853L97.6087 49.0441V48.9237H101.567V49.044L101.454 49.0853L101.482 49.1647ZM102.502 51.6253L102.388 51.6666L101.482 49.1647H101.567V49.044L101.567 49.044V49.0442L101.679 49.003L102.585 51.5049H102.502V51.6253ZM103.873 51.7459H102.502V51.6253L102.614 51.5842L102.585 51.5049H103.699L103.76 51.6681L103.873 51.6252V51.6255L103.873 51.6256V51.7459ZM103.873 51.7459V51.7461H104.046L103.985 51.5831L103.873 51.6255V51.7459H103.873ZM100.375 42.05L100.401 42.0401L103.985 51.583L103.873 51.6252V51.5049H103.699L100.206 42.2032H100.289V42.0827L100.375 42.05ZM100.289 42.0826L100.375 42.05L100.401 42.0401L100.372 41.9622H100.288V41.9622H98.9181V42.0829L99.0296 42.1251L99.0003 42.2032H100.206L100.177 42.1251L100.289 42.0827V42.0826ZM100.289 42.0826L100.288 42.0826V41.9622H100.289V42.0826ZM101.679 49.003L101.679 49.0029L101.567 49.044V48.9237H101.651L101.679 49.003L101.679 49.003ZM97.6086 49.044V48.9237H97.5246L97.4958 49.003L97.4959 49.003L97.496 49.0029L97.6086 49.044ZM102.389 51.6666L102.501 51.6254V51.7459H102.417L102.389 51.6666ZM84.0048 42.1294V42.009H83.8848V42.1294H83.8848V51.6253H84.005V51.7459H85.3285V51.7459H85.4485V51.6256H85.4486V44.2263L90.0568 51.6889L90.1589 51.6254V51.6254L90.0569 51.6889L90.0917 51.7459H90.1589L90.1589 51.7459H91.4368V51.7459H91.5568V51.6254H91.4369V51.6254H91.5569V42.1138H91.5568V41.9934H91.4368V41.9934H90.2369V42.1138H90.2367V41.9934H90.1167V42.1138H90.1167V49.1147L85.6635 42.0649L85.5627 42.1295V42.1294L85.6635 42.0649L85.6287 42.009H85.5627V42.1294L85.5627 42.1294V42.009H84.005V42.1294H84.0048ZM84.1248 42.25V42.1294H84.005V42.25H84.1248ZM85.4973 42.25H84.1248V51.5049H84.005V51.6253H84.1248V51.5049H85.2086V51.6256H85.3285V51.7459H85.3287V51.6256H85.4485V51.6254H85.3287V51.5049H85.2086V43.8035H85.3284L85.2266 43.8669L85.4486 44.2263V43.8035H85.3284L85.3287 43.8033H85.2087V43.3804L85.4307 43.7398L85.4306 43.7399L90.2256 51.5049H90.1589L90.1589 51.6254L90.2608 51.5619L90.2256 51.5049H91.3169V51.6254H91.4369V51.5049H91.3169V42.2344H91.437V42.1139H91.5568V42.1138H91.437V41.9934H91.4368V42.1138H91.3169V42.2344H90.3567V42.1138H90.2369V42.2344H90.3567V49.5291H90.237L90.3377 49.4646L90.1167 49.1147V49.5291H90.2368L90.1476 49.5863L90.2369 49.5291H90.3567V49.5291H90.3569V49.9441L90.1361 49.5937L90.1361 49.5937L85.4973 42.25ZM90.2369 49.5291H90.2368L90.2369 49.5291H90.237L90.2369 49.5291ZM85.4973 42.25H85.5627V42.1294L85.4619 42.1939L85.4973 42.25ZM91.4368 42.1138H91.437V42.1139H91.4368V42.1138ZM85.3287 51.6254V51.6256H85.3285V51.6254H85.3287ZM90.1167 42.1138H90.2367V42.1139H90.1167V42.1138ZM91.4369 51.6254H91.4368V51.7459H91.4369V51.6254ZM84.0048 42.1294V42.1295H83.8848V42.1294H84.0048ZM83.8848 51.6254H84.0048V51.7459H83.8848V51.6254ZM67.3338 51.6255H67.3336L67.3336 51.6255H67.4537V51.5062L70.2018 51.5361L70.2004 51.6745L70.1948 51.7771L67.3326 51.7458L67.3338 51.6255ZM73.7079 50.3438L73.7901 50.4291C72.8313 51.3616 71.528 51.8501 70.1948 51.7771L70.1994 51.7771L70.2004 51.6745L70.208 51.5364C71.4725 51.6058 72.7084 51.1428 73.6201 50.2591L73.6173 50.2623L73.7079 50.3438ZM73.7063 43.4595L73.7901 43.3729C72.8373 42.4387 71.5412 41.9447 70.2104 42.0089L70.2104 42.009H67.3338V42.009H67.2138V42.1294H67.2137V51.6255H67.3336L67.3348 51.5049L67.4537 51.5062V42.25H70.2162V42.1258L70.2224 42.2497C71.4833 42.1887 72.7119 42.656 73.6174 43.5395L73.6173 43.5396C75.3216 45.4525 75.3225 48.3452 73.6201 50.2591L73.6233 50.256L73.7079 50.3438L73.7961 50.423C75.583 48.4176 75.583 45.3843 73.7961 43.3789L73.7063 43.4595ZM73.7063 43.4595L73.6233 43.5453L73.6174 43.5395L73.7063 43.4595ZM67.3338 42.1294V42.009H67.3336V42.1294H67.2138V42.1295H67.3336V42.25H67.4537V42.1294H67.3338ZM67.3336 42.1295V42.1294H67.3338V42.1295H67.3336ZM67.3326 51.7458L67.3326 51.7459L67.2138 51.7447V51.6255H67.3336L67.3324 51.7458L67.3326 51.7458ZM70.2162 42.1258L70.2104 42.009H70.2162V42.1258ZM70.2007 51.6566L70.2079 51.5362L70.2019 51.5361L70.2007 51.6566ZM70.2163 42.2501V42.1294L70.2223 42.2498L70.2163 42.2501ZM65.3405 45.1329V45.2534H65.4617L65.4605 45.1316L65.3405 45.1329ZM64.0984 45.1329H64.2184V45.2534H64.0984V45.1329ZM65.3093 42.1292L65.4293 42.1279L65.4293 42.1279L65.4294 42.1279L65.4606 45.1315L65.3405 45.1328V45.0124H65.2193L65.1906 42.2497H65.3093V42.1291L65.3093 42.1291V42.1292ZM64.3384 42.2497V42.1291H64.2185V42.0087H65.3093V42.1291L65.1894 42.1303L65.1906 42.2497H64.3384ZM64.3384 45.0124V42.2497H64.2185V42.1291H64.2184V42.0087H64.0984V42.1291H64.0984V45.1328H64.2185V45.2533H65.3405V45.1328L65.2206 45.134L65.2193 45.0124H64.3384ZM64.3384 45.0124V45.1328H64.2185V45.0124H64.3384ZM64.0984 42.1291V42.1292H64.2184V42.1291H64.0984ZM65.4293 42.1279L65.3093 42.1291V42.0087H65.4281L65.4293 42.1279ZM70.2163 50.4521L70.222 50.3377L70.2223 50.3319C71.1476 50.3829 72.0548 50.0557 72.7365 49.425L72.8229 49.5187L72.8985 49.6027L72.8994 49.6018L72.8997 49.6021C72.1706 50.2765 71.2006 50.6265 70.2113 50.5726H70.2163V50.4422L70.2163 50.4416V50.4521ZM68.5326 50.4522H68.6527V50.3317H70.2163V50.4422L70.2091 50.5725L70.2113 50.5726H68.5326V50.4522ZM68.6527 43.3761V50.3317H68.5326V50.4522H68.4127V43.2559H68.4127V43.2559H68.5326V43.3761H68.6527ZM68.5327 43.2559H68.6527V43.3761H70.2163V43.266L70.2163 43.2666V43.3766L70.2223 43.3762L70.2222 43.3733L70.2223 43.3762C71.6864 43.2966 73.0413 44.1508 73.6065 45.5089L73.6066 45.5089C74.1706 46.8672 73.8225 48.4352 72.7377 49.4242L72.8229 49.5187L72.8994 49.6018C74.0592 48.5443 74.4308 46.868 73.8273 45.4161L73.8273 45.4161C73.2246 43.9659 71.7784 43.0532 70.2163 43.1352V43.1351H68.5326V43.1354H68.4127V43.2559H68.5326V43.2559H68.5327V43.2559ZM68.5327 43.2559H68.5326V43.1354H68.5327V43.2559ZM73.8273 45.4161L73.8273 45.4162L73.6066 45.5089L73.6065 45.5089L73.8273 45.4161ZM70.2222 43.3733L70.2163 43.2666V43.2558L70.2222 43.3733ZM70.2163 43.1352V43.266L70.2091 43.1356L70.2163 43.1352ZM70.222 50.3377L70.2163 50.4416V50.3316H70.2223L70.222 50.3377ZM82.2444 43.4232V43.3029H82.2445V43.4232H82.2444ZM82.3644 43.3029V43.4233H82.2444V43.4232H78.048V43.303H77.9279V43.1823H82.1244V43.3029H82.2444V43.3028H82.2445V43.3029H82.3644ZM82.2444 42.1296L82.2444 42.1295H82.3644V42.009H82.2444L82.2444 42.009H76.7135V42.009H76.5934V42.1294H76.5934V51.6253H76.7133V51.6254H76.5934V51.7459H76.7135V51.7459H82.2444L82.2444 51.7459H82.3644V51.6254H82.2444V51.6254H82.3644V50.499H82.2445V50.3788H78.048V47.6005H81.8233V47.6002H81.9431V47.48H81.9432V46.3223H81.8233L81.9431 46.3223V46.2018H81.8233V46.2015H78.048V43.4232H77.9279V43.303H77.808V46.322H77.8077V46.4425H77.9277V46.3223H77.9279V46.4425H81.7031V47.3595H77.9279V47.4799H77.808V50.499H77.8077V50.6195H77.9277V50.4992H77.9279V50.6198H82.1244V51.5049H76.8334V42.25H82.1244V43.1823H82.2445V43.3028H82.3644V43.3029H82.3644V42.1296H82.2444ZM82.2444 42.1296V42.25H82.1244V42.1296H82.2444ZM76.7133 42.1295H76.5934V42.1294H76.7133V42.1295ZM76.7135 42.1294H76.8334V42.25H76.7133V42.1295H76.7135V42.1294ZM76.7135 42.1294H76.7133V42.009H76.7135V42.1294ZM77.9277 50.4992H77.808V50.499H77.9277V50.4992ZM81.8233 47.4797H81.9431V47.48H81.8233V47.4797ZM81.8231 47.48H81.7031V47.3595H81.8233V47.4797H81.8231V47.48ZM81.8231 47.48H81.8233V47.6002H81.8231V47.48ZM77.9277 46.3223H77.808V46.322H77.9277V46.3223ZM77.9279 46.3223H78.048V46.2015H77.9279V46.3223ZM81.7031 46.4425V46.3223H81.8233V46.4425H81.7031ZM81.8233 46.2018H81.8231V46.3223L81.8233 46.3223V46.2018ZM77.9279 47.4799H78.048V47.6005H77.9279V47.4799ZM77.9279 50.4992H78.048V50.3788H77.9279V50.4992ZM82.1244 50.6198H82.2445V50.499H82.1244V50.6198ZM82.1244 51.5049H82.2444L82.2444 51.6254H82.1244V51.5049ZM76.7135 51.7459V51.6254H76.7133V51.7459H76.7135ZM76.8334 51.5049V51.6253H76.7133V51.5049H76.8334ZM99.5852 43.6002L99.5855 43.6L99.6979 43.641L99.5853 43.9523L99.4725 43.641L99.5848 43.6001L99.5852 43.6002ZM99.4724 43.5588L99.4724 43.559L99.5848 43.6001L99.5852 43.5999L99.5855 43.6L99.698 43.559L99.6979 43.5588L99.6981 43.5587L101.257 47.8609L101.144 47.9021V47.7817H100.973L99.5853 43.9523L98.1987 47.7817H98.0275V47.9021L97.9147 47.8609L99.4723 43.5587L99.4724 43.5588ZM101.144 48.0227H98.0275V47.9021L98.1403 47.9432L98.1987 47.7817H100.973L101.031 47.9432L101.144 47.9021V47.9023L101.144 47.9023V48.0227ZM101.144 48.0227H101.144V47.9023L101.257 47.8611L101.314 48.0228H101.144V48.0227ZM99.4724 43.5588L99.5852 43.2476L99.6979 43.5588L99.5852 43.5999L99.4724 43.5588ZM98.0275 47.9023L97.9147 47.8611L97.8559 48.0228H98.0275V47.9023ZM104.967 51.6254H105.087V51.7459H104.967V51.6254ZM105.087 42.1295V42.1294H105.088V42.25H105.207V51.5049H105.088V51.6253H104.967V42.1294H104.967V42.1295H105.087ZM110.551 51.6255V51.7459H110.431L105.088 51.7459V51.6253H105.207V51.5049H110.311V51.6255H110.551ZM110.431 50.4835H110.551V51.6255H110.551V51.6254H110.431L110.431 51.5049H110.311V50.6038H110.431V50.4835ZM106.423 50.3629H110.431V50.4835H110.311V50.6038L106.303 50.6039V50.4834H106.303V50.4833H106.423V50.3629ZM106.423 42.1294H106.423V50.3629H106.303V50.4833H106.183V42.25H106.303V42.1295H106.423V42.1294ZM106.303 42.1294H106.423V42.009H106.303V42.009H105.088V42.1294H105.207V42.25H106.183V42.1294H106.303V42.1295H106.303V42.1294ZM106.303 42.1294H106.303V42.009H106.303V42.1294ZM106.303 50.4834V50.6038L106.303 50.6039H106.183V50.4834H106.303ZM105.087 42.1294H104.967V42.009H105.087V42.1294ZM110.431 50.4833H110.551V50.3628H110.431V50.4833ZM111.739 42.1295H111.619V42.1294H111.739V42.1295ZM111.74 42.1294H111.739V42.009H111.619V42.1294H111.619V51.6253H111.74V51.7459L112.955 51.7459H113.075V51.6254H112.955V51.6253H113.075V42.1294H113.075V42.009H112.955V42.009H111.74V42.1294ZM111.859 42.25V42.1294H111.74V42.25H111.859ZM112.835 42.25H111.859V51.5049H111.74V51.6253H111.859V51.5049H112.835V51.6253H112.955V51.5049H112.835V42.25ZM112.955 42.1294H112.835V42.25H112.955V42.1295H113.075V42.1294H112.955V42.009H112.955V42.1294ZM112.955 42.1294H112.955V42.1295H112.955V42.1294ZM112.955 51.6254H112.955V51.7459L112.955 51.7459V51.6254ZM111.739 51.6254H111.619V51.7459H111.739V51.6254ZM115.135 51.6254H115.136V51.7459L115.135 51.7459V51.6254ZM115.135 51.6253H115.256V51.5049H116.356V51.6256H116.476V51.7459L115.136 51.7459H115.016V51.6254H115.135V51.6253ZM115.016 42.1294V42.009H115.136V42.009H115.135V42.1294H115.016ZM115.135 42.1295V42.25H115.256V51.5049H115.135V51.6253H115.016V42.1294H115.016V42.1295H115.135ZM115.136 42.1294V42.009H116.694V42.129L116.592 42.1939L116.628 42.25H115.256V42.1294H115.136ZM121.267 49.5937L116.628 42.25H116.694V42.129L116.694 42.129V42.1295L116.795 42.0649L121.249 49.1152V49.5291H121.368L121.267 49.5937ZM121.489 42.2344V49.5291L121.489 49.5291V49.9441L121.267 49.5937L121.369 49.5291L121.368 49.5291L121.469 49.4646L121.249 49.1152V42.1138H121.249V42.1139H121.369V42.2344H121.489ZM121.369 42.1138H121.489V42.2344H122.464V51.5049H121.373L116.578 43.7399L116.476 43.8035H116.356V51.5049H116.476V51.6256H116.476V51.7459H116.596V51.6256H116.596V44.2263L121.204 51.6888L121.204 51.6889L121.239 51.7459H121.306L122.584 51.7459V51.6254H122.704V42.1138H122.704V41.9934H122.584V42.1138H122.584V41.9934H121.369V41.9934H121.249V42.1138H121.369V42.1139H121.369V42.1138ZM121.369 42.1138H121.369V41.9934H121.369V42.1138ZM122.584 42.1138V42.1139H122.704V42.1138H122.584ZM122.584 51.6254H122.464V51.5049H122.584V51.6254ZM121.204 51.6888L121.306 51.6254V51.5049H121.373L121.408 51.5619L121.306 51.6256L121.204 51.6889L121.204 51.6888ZM116.596 51.6256H116.476V51.6254H116.596V51.6256ZM116.596 44.2263L116.374 43.8669L116.476 43.8035H116.596V44.2263ZM122.584 42.1138V42.2344H122.464V42.1138H122.584ZM116.694 42.129V42.009H116.76L116.795 42.0649L116.694 42.129ZM115.135 42.1295V42.1294H115.136V42.1295H115.135ZM116.476 43.8033L116.578 43.7398L116.356 43.3804V43.8033H116.476ZM122.584 51.6254V51.7459H122.704V51.6254H122.584Z" fill="white"/>
<defs>
<linearGradient id="paint0_linear_1_357" x1="40.8498" y1="-26.213" x2="9.50409" y2="-23.9944" gradientUnits="userSpaceOnUse">
<stop stop-color="#00A0FF"/>
<stop offset="0.01" stop-color="#00A1FF"/>
<stop offset="0.26" stop-color="#00BEFF"/>
<stop offset="0.51" stop-color="#00D2FF"/>
<stop offset="0.76" stop-color="#00DFFF"/>
<stop offset="1" stop-color="#00E3FF"/>
</linearGradient>
<linearGradient id="paint1_linear_1_357" x1="68.4739" y1="15.0173" x2="30.7825" y2="15.0173" gradientUnits="userSpaceOnUse">
<stop stop-color="#FFE000"/>
<stop offset="0.41" stop-color="#FFBD00"/>
<stop offset="0.78" stop-color="#FFA500"/>
<stop offset="1" stop-color="#FF9C00"/>
</linearGradient>
<linearGradient id="paint2_linear_1_357" x1="4.3996" y1="27.174" x2="-11.624" y2="72.2432" gradientUnits="userSpaceOnUse">
<stop stop-color="#FF3A44"/>
<stop offset="1" stop-color="#C31162"/>
</linearGradient>
<linearGradient id="paint3_linear_1_357" x1="4.77089" y1="26.3416" x2="11.9074" y2="46.4678" gradientUnits="userSpaceOnUse">
<stop stop-color="#32A071"/>
<stop offset="0.07" stop-color="#2DA771"/>
<stop offset="0.48" stop-color="#15CF74"/>
<stop offset="0.8" stop-color="#06E775"/>
<stop offset="1" stop-color="#00F076"/>
</linearGradient>
</defs>
</svg>
