<svg width="339" height="346" fill="none" xmlns="http://www.w3.org/2000/svg"><g filter="url(#a)"><rect x="74" y="70" width="191" height="198" rx="14" fill="#44C0E9"/><path d="M164.749 174v-8.994h-25.848c15.631-11.789 25.499-21.395 25.499-32.136 0-11.614-9.868-17.988-21.132-17.988-8.121 0-16.33 3.143-21.482 9.343l5.938 6.724c3.668-4.191 8.907-6.986 15.718-6.986 5.327 0 10.567 2.795 10.567 8.907 0 8.384-8.82 15.981-31.437 33.096V174h42.177zm45.822 0v-13.186h7.771v-8.994h-7.771v-36.065h-14.06l-23.926 36.851v8.208h27.769V174h10.217zm-10.217-22.18h-17.727l17.727-26.896v26.896zM122.825 197.202c2.508 0 3.812-1.304 3.812-2.93 0-3.772-5.999-2.367-5.999-4.494 0-.863.823-1.525 2.147-1.525 1.244 0 2.307.522 2.889 1.224l.702-1.044c-.782-.782-1.946-1.404-3.591-1.404-2.308 0-3.612 1.284-3.612 2.789 0 3.592 6 2.147 6 4.494 0 .964-.803 1.666-2.288 1.666-1.324 0-2.548-.642-3.19-1.385l-.783 1.084c.983 1.043 2.328 1.525 3.913 1.525zm13.822-.241V190.3c0-2.348-1.706-3.271-3.753-3.271-1.585 0-2.829.522-3.872 1.605l.702 1.043c.863-.922 1.806-1.344 2.97-1.344 1.404 0 2.448.743 2.448 2.047v1.745c-.783-.903-1.886-1.324-3.211-1.324-1.645 0-3.391 1.023-3.391 3.19 0 2.107 1.746 3.211 3.391 3.211 1.305 0 2.408-.462 3.211-1.345v1.104h1.505zm-4.174-.843c-1.404 0-2.388-.883-2.388-2.106 0-1.245.984-2.127 2.388-2.127 1.064 0 2.087.401 2.669 1.204v1.825c-.582.803-1.605 1.204-2.669 1.204zm14.755.843V190.3c0-2.348-1.706-3.271-3.752-3.271-1.586 0-2.83.522-3.873 1.605l.702 1.043c.863-.922 1.806-1.344 2.97-1.344 1.404 0 2.448.743 2.448 2.047v1.745c-.783-.903-1.886-1.324-3.211-1.324-1.645 0-3.391 1.023-3.391 3.19 0 2.107 1.746 3.211 3.391 3.211 1.305 0 2.408-.462 3.211-1.345v1.104h1.505zm-4.174-.843c-1.404 0-2.388-.883-2.388-2.106 0-1.245.984-2.127 2.388-2.127 1.064 0 2.087.401 2.669 1.204v1.825c-.582.803-1.605 1.204-2.669 1.204zm9.638 1.084c.883 0 1.425-.261 1.806-.622l-.441-1.124c-.201.221-.602.401-1.024.401-.662 0-.983-.521-.983-1.244v-6.019h1.967v-1.324h-1.967v-2.649h-1.505v2.649h-1.605v1.324h1.605v6.341c0 1.444.723 2.267 2.147 2.267zm7.824 0c1.586 0 2.89-.522 3.853-1.485l-.722-.983c-.763.782-1.887 1.224-2.99 1.224-2.087 0-3.371-1.525-3.491-3.351h7.845v-.381c0-2.91-1.726-5.197-4.655-5.197-2.769 0-4.776 2.267-4.776 5.076 0 3.03 2.067 5.097 4.936 5.097zm3.01-5.699h-6.36c.08-1.484 1.103-3.23 3.17-3.23 2.207 0 3.17 1.786 3.19 3.23zm17.623 5.458-4.314-5.297 4.294-4.394h-1.906l-5.097 5.156v-8.848h-1.505v13.383h1.505v-2.769l1.605-1.585 3.492 4.354h1.926zm9.344 0V190.3c0-2.348-1.706-3.271-3.752-3.271-1.586 0-2.83.522-3.873 1.605l.702 1.043c.863-.922 1.806-1.344 2.97-1.344 1.404 0 2.448.743 2.448 2.047v1.745c-.783-.903-1.886-1.324-3.211-1.324-1.645 0-3.391 1.023-3.391 3.19 0 2.107 1.746 3.211 3.391 3.211 1.305 0 2.408-.462 3.211-1.345v1.104h1.505zm-4.174-.843c-1.404 0-2.388-.883-2.388-2.106 0-1.245.984-2.127 2.388-2.127 1.064 0 2.087.401 2.669 1.204v1.825c-.582.803-1.605 1.204-2.669 1.204zm15.718.843v-13.383h-1.505v5.156c-.782-1.063-1.966-1.705-3.271-1.705-2.548 0-4.313 2.006-4.313 5.096 0 3.151 1.785 5.077 4.313 5.077 1.365 0 2.549-.702 3.271-1.686v1.445h1.505zm-4.414-1.104c-1.947 0-3.11-1.585-3.11-3.732 0-2.147 1.163-3.752 3.11-3.752 1.204 0 2.367.723 2.909 1.565v4.395c-.542.842-1.705 1.524-2.909 1.524zm14.992 1.104V190.3c0-2.348-1.705-3.271-3.752-3.271-1.585 0-2.829.522-3.873 1.605l.703 1.043c.862-.922 1.806-1.344 2.969-1.344 1.405 0 2.448.743 2.448 2.047v1.745c-.782-.903-1.886-1.324-3.21-1.324-1.646 0-3.391 1.023-3.391 3.19 0 2.107 1.745 3.211 3.391 3.211 1.304 0 2.408-.462 3.21-1.345v1.104h1.505zm-4.173-.843c-1.405 0-2.388-.883-2.388-2.106 0-1.245.983-2.127 2.388-2.127 1.063 0 2.086.401 2.668 1.204v1.825c-.582.803-1.605 1.204-2.668 1.204zm8.695.843v-6.862c.441-.783 1.705-1.545 2.628-1.545.241 0 .421.02.602.06v-1.545c-1.324 0-2.448.742-3.23 1.766v-1.565h-1.505v9.691h1.505zM111.27 215.328c0-.888-.744-1.608-1.632-1.608-.888 0-1.632.72-1.632 1.608 0 .912.744 1.632 1.632 1.632.888 0 1.632-.72 1.632-1.632zm-5.088 0c0-.888-.72-1.608-1.608-1.608-.912 0-1.632.72-1.632 1.608 0 .912.72 1.632 1.632 1.632.888 0 1.608-.72 1.608-1.632zm.864 18.96c4.872 0 7.224-2.712 7.224-6.696v-9.6h-3.48v9.504c0 2.232-1.272 3.768-3.744 3.768-2.472 0-3.768-1.536-3.768-3.768v-9.504h-3.456v9.624c0 3.936 2.352 6.672 7.224 6.672zm15.706 0c2.376 0 3.816-1.032 4.584-2.112l-1.992-1.848c-.552.768-1.392 1.248-2.448 1.248-1.848 0-3.144-1.368-3.144-3.384s1.296-3.36 3.144-3.36c1.056 0 1.896.432 2.448 1.248l1.992-1.872c-.768-1.056-2.208-2.088-4.584-2.088-3.576 0-6.144 2.52-6.144 6.072 0 3.576 2.568 6.096 6.144 6.096zm9.624-.288v-7.656c.504-.744 1.848-1.32 2.856-1.32.336 0 .624.024.84.072v-2.976c-1.44 0-2.88.84-3.696 1.872v-1.584h-3.048V234h3.048zm11.049.288c1.8 0 3.624-.552 4.776-1.608l-1.344-1.968c-.744.72-2.112 1.152-3.096 1.152-1.968 0-3.144-1.224-3.336-2.688h8.616v-.672c0-3.792-2.352-6.384-5.808-6.384-3.528 0-6 2.712-6 6.072 0 3.72 2.664 6.096 6.192 6.096zm2.664-7.176h-5.712c.144-1.152.96-2.568 2.856-2.568 2.016 0 2.784 1.464 2.856 2.568zm9.041 7.176c1.272 0 2.088-.336 2.544-.744l-.648-2.304c-.168.168-.6.336-1.056.336-.672 0-1.056-.552-1.056-1.272v-5.232h2.352v-2.664h-2.352v-3.168h-3.072v3.168h-1.92v2.664h1.92v6.048c0 2.064 1.152 3.168 3.288 3.168zm8.398 0c3.216 0 5.016-1.608 5.016-3.72 0-4.68-6.864-3.24-6.864-4.968 0-.648.72-1.152 1.824-1.152 1.416 0 2.736.6 3.432 1.344l1.224-2.088c-1.152-.912-2.712-1.584-4.68-1.584-3.048 0-4.752 1.704-4.752 3.648 0 4.56 6.888 3 6.888 4.92 0 .72-.624 1.248-1.944 1.248-1.44 0-3.168-.792-4.008-1.584l-1.32 2.136c1.224 1.128 3.168 1.8 5.184 1.8zm8.773-13.128a1.823 1.823 0 0 0 1.824-1.824c0-1.008-.816-1.8-1.824-1.8-.984 0-1.824.792-1.824 1.8s.84 1.824 1.824 1.824zm1.536 12.84v-11.592h-3.048V234h3.048zm11.975 0v-2.664h-5.4l5.304-6.72v-2.208h-9.36v2.664h5.232l-5.232 6.648V234h9.456zm12.153 0v-16.008h-3.408V234h3.408zm-1.656-17.04c.864 0 1.608-.72 1.608-1.632 0-.888-.744-1.632-1.608-1.632-.912 0-1.632.744-1.632 1.632 0 .912.72 1.632 1.632 1.632zm11.386 17.328c2.976 0 5.136-2.232 5.136-6.096s-2.16-6.072-5.136-6.072c-1.416 0-2.688.624-3.576 1.752v-1.464h-3.048v16.008h3.048v-5.904c.936 1.2 2.208 1.776 3.576 1.776zm-.96-2.712c-.984 0-2.112-.6-2.616-1.32v-4.104c.504-.744 1.632-1.32 2.616-1.32 1.752 0 2.928 1.368 2.928 3.36 0 2.016-1.176 3.384-2.928 3.384zm12.216 2.712c1.272 0 2.088-.336 2.544-.744l-.648-2.304c-.168.168-.6.336-1.056.336-.672 0-1.056-.552-1.056-1.272v-5.232h2.352v-2.664h-2.352v-3.168h-3.072v3.168h-1.92v2.664h1.92v6.048c0 2.064 1.152 3.168 3.288 3.168zM233.18 234v-7.488c0-3.336-2.424-4.392-5.064-4.392-1.824 0-3.648.576-5.064 1.824l1.152 2.04c.984-.912 2.136-1.368 3.384-1.368 1.536 0 2.544.768 2.544 1.944v1.56c-.768-.912-2.136-1.416-3.672-1.416-1.848 0-4.032 1.032-4.032 3.744 0 2.592 2.184 3.84 4.032 3.84 1.512 0 2.88-.552 3.672-1.488v1.2h3.048zm-5.496-1.776c-1.2 0-2.184-.624-2.184-1.704 0-1.128.984-1.752 2.184-1.752.984 0 1.944.336 2.448 1.008v1.44c-.504.672-1.464 1.008-2.448 1.008zM239.251 234v-16.008h-3.048V234h3.048z" fill="#fff"/></g><path fill-rule="evenodd" clip-rule="evenodd" d="M126.64 54.554a3.25 3.25 0 0 1 .306 4.586l-45.5 52a3.25 3.25 0 0 1-4.744.158l-19.5-19.5a3.25 3.25 0 0 1 4.596-4.596l17.044 17.044 43.212-49.386a3.25 3.25 0 0 1 4.586-.306z" fill="#29FF63"/><path fill-rule="evenodd" clip-rule="evenodd" d="M142.64 54.554a3.25 3.25 0 0 1 .306 4.586l-45.5 52a3.25 3.25 0 0 1-4.744.158l-19.5-19.5a3.25 3.25 0 0 1 4.596-4.596l17.044 17.044 43.212-49.386a3.25 3.25 0 0 1 4.586-.306z" fill="#29FF63"/><defs><filter id="a" x="0" y="0" width="339" height="346" filterUnits="userSpaceOnUse" color-interpolation-filters="sRGB"><feFlood flood-opacity="0" result="BackgroundImageFix"/><feColorMatrix in="SourceAlpha" values="0 0 0 0 0 0 0 0 0 0 0 0 0 0 0 0 0 0 127 0" result="hardAlpha"/><feOffset dy="4"/><feGaussianBlur stdDeviation="37"/><feComposite in2="hardAlpha" operator="out"/><feColorMatrix values="0 0 0 0 0 0 0 0 0 0 0 0 0 0 0 0 0 0 0.25 0"/><feBlend in2="BackgroundImageFix" result="effect1_dropShadow_0_1"/><feBlend in="SourceGraphic" in2="effect1_dropShadow_0_1" result="shape"/></filter></defs></svg>