<svg width="107" height="107" fill="none" xmlns="http://www.w3.org/2000/svg"><rect x=".037" y=".037" width="106.963" height="106.963" rx="53.481" fill="#FF5841"/><path fill-rule="evenodd" clip-rule="evenodd" d="M73.888 40.397a3.342 3.342 0 0 1 4.7 3.054v20.135a3.344 3.344 0 0 1-4.7 3.054 1.666 1.666 0 0 1-.284-.16l-8.64-6.082a3.343 3.343 0 0 1-1.418-2.732V49.37a3.342 3.342 0 0 1 1.419-2.732l8.64-6.082c.088-.062.183-.116.282-.16zm-6.999 17.268 8.357 5.882V43.49l-8.357 5.882v8.293zM35.55 38.477H54.827a7.07 7.07 0 0 1 7.048 7.048V61.462a7.119 7.119 0 0 1-7.098 7.098h-19.23a7.119 7.119 0 0 1-7.098-7.098V45.575a7.119 7.119 0 0 1 7.098-7.098h.003zm.005 3.342a3.776 3.776 0 0 0-3.763 3.763v15.873a3.776 3.776 0 0 0 3.763 3.763h19.214a3.776 3.776 0 0 0 3.763-3.764V45.532a3.727 3.727 0 0 0-3.713-3.713H35.555z" fill="#fff"/></svg>