<svg width="421" height="58" fill="none" xmlns="http://www.w3.org/2000/svg"><g opacity=".5" filter="url(#a)"><rect x="7" y="4" width="407" height="44" rx="9.729" fill="#000"/></g><path d="M27.962 31c3.356 0 5.545-2.319 5.545-5.4 0-3.064-2.189-5.416-5.545-5.416h-3.697V31h3.697zm0-1.2H25.61v-8.416h2.35c2.676 0 4.152 1.881 4.152 4.216 0 2.32-1.524 4.2-4.151 4.2zm11.143 1.395c1.28 0 2.335-.422 3.113-1.2l-.584-.795c-.616.633-1.524.99-2.416.99-1.686 0-2.724-1.233-2.821-2.709h6.34v-.308c0-2.351-1.395-4.2-3.762-4.2-2.238 0-3.86 1.833-3.86 4.103 0 2.448 1.671 4.119 3.99 4.119zm2.432-4.605h-5.14c.065-1.2.892-2.611 2.562-2.611 1.783 0 2.562 1.443 2.578 2.61zm5.65 4.605c2.028 0 3.082-1.054 3.082-2.368 0-3.048-4.849-1.913-4.849-3.632 0-.697.665-1.232 1.735-1.232 1.006 0 1.865.421 2.335.989l.568-.843c-.633-.633-1.573-1.136-2.903-1.136-1.864 0-2.919 1.038-2.919 2.254 0 2.903 4.849 1.735 4.849 3.633 0 .778-.649 1.346-1.849 1.346-1.07 0-2.059-.52-2.578-1.12l-.632.876c.794.843 1.88 1.233 3.162 1.233zm7.035 0c.714 0 1.152-.211 1.46-.503l-.357-.908c-.162.178-.486.324-.827.324-.535 0-.794-.421-.794-1.005v-4.865h1.589v-1.07h-1.59v-2.14h-1.216v2.14H51.19v1.07h1.297v5.124c0 1.168.584 1.833 1.735 1.833zm6.323 0c1.282 0 2.335-.422 3.114-1.2l-.584-.795c-.616.633-1.524.99-2.416.99-1.686 0-2.724-1.233-2.821-2.709h6.34v-.308c0-2.351-1.395-4.2-3.762-4.2-2.238 0-3.86 1.833-3.86 4.103 0 2.448 1.67 4.119 3.99 4.119zm2.433-4.605h-5.14c.065-1.2.891-2.611 2.562-2.611 1.783 0 2.562 1.443 2.578 2.61zm6.315 7.588c1.914 0 3.73-.81 3.73-3.405v-7.605h-1.216v1.184c-.633-.86-1.573-1.378-2.627-1.378-2.06 0-3.487 1.556-3.487 4.07 0 2.53 1.444 4.053 3.487 4.053 1.102 0 2.059-.6 2.627-1.394v1.119c0 1.718-1.217 2.35-2.514 2.35-1.119 0-1.897-.291-2.546-1.07l-.616.909c.924.908 1.833 1.167 3.162 1.167zm.179-4.15c-1.573 0-2.514-1.266-2.514-2.984 0-1.736.94-2.984 2.514-2.984.973 0 1.913.584 2.335 1.265v3.421c-.422.681-1.362 1.281-2.335 1.281zm3-9.179-.6-.519a2.659 2.659 0 0 1-2.238 1.168c-.957 0-1.735-.454-2.254-1.168l-.6.52a3.578 3.578 0 0 0 2.854 1.426c1.167 0 2.189-.551 2.837-1.427zm3.587 1.2a.817.817 0 0 0 .826-.81.83.83 0 0 0-.827-.828.827.827 0 0 0-.81.827c0 .454.373.811.81.811zM76.674 31v-7.832h-1.216V31h1.216zm8.928 0v-5.497c0-1.703-.86-2.53-2.497-2.53-1.168 0-2.238.681-2.79 1.33v-1.135h-1.215V31h1.216v-5.724c.454-.632 1.362-1.216 2.319-1.216 1.053 0 1.75.438 1.75 1.816V31h1.217zm3.029-8.95a.817.817 0 0 0 .826-.812.83.83 0 0 0-.826-.826.827.827 0 0 0-.811.826c0 .454.373.811.81.811zm.616 8.95v-7.832h-1.216V31h1.216zm8.02 0v-1.054h-4.41l4.345-5.854v-.924h-5.902v1.07h4.313L91.3 30.06V31h5.967zm6.834-8.95a.817.817 0 0 0 .827-.812.83.83 0 0 0-.827-.826.827.827 0 0 0-.81.826c0 .454.373.811.81.811zm.617 8.95v-7.832h-1.217V31h1.217zm5.896 3.065c.924 0 1.686-.503 1.686-1.297 0-.665-.454-1.087-1.07-1.087-.211 0-.438.065-.6.178l.259-.68c1.249-.082 2.011-.617 2.578-1.346l-.81-.746c-.519.697-1.184 1.021-1.995 1.021-1.67 0-2.708-1.297-2.708-3.032s1.038-3.016 2.708-3.016c.811 0 1.476.308 1.995 1.021l.81-.745c-.6-.779-1.443-1.362-2.87-1.362-2.335 0-3.907 1.783-3.907 4.102 0 2.205 1.394 3.892 3.486 4.086l-.357.99.535.307a.872.872 0 0 1 .616-.275c.406 0 .6.227.6.567 0 .438-.47.681-.989.681-.438 0-.908-.146-1.297-.47l-.308.616c.324.26.94.487 1.638.487zm5.158-12.016a.817.817 0 0 0 .827-.81.83.83 0 0 0-.827-.828.827.827 0 0 0-.811.827c0 .454.373.811.811.811zm.616 8.951v-7.832h-1.216V31h1.216zm8.928 0v-5.497c0-1.703-.859-2.53-2.497-2.53-1.167 0-2.238.681-2.789 1.33v-1.135h-1.216V31h1.216v-5.724c.454-.632 1.362-1.216 2.319-1.216 1.054 0 1.751.438 1.751 1.816V31h1.216zm10.08 3.065c.924 0 1.686-.503 1.686-1.297 0-.665-.454-1.087-1.07-1.087-.211 0-.438.065-.6.178l.259-.68c1.249-.082 2.011-.617 2.578-1.346l-.81-.746c-.519.697-1.184 1.021-1.995 1.021-1.67 0-2.708-1.297-2.708-3.032s1.038-3.016 2.708-3.016c.811 0 1.476.308 1.995 1.021l.81-.745c-.6-.779-1.443-1.362-2.87-1.362-2.335 0-3.908 1.783-3.908 4.102 0 2.205 1.395 3.892 3.487 4.086l-.357.99.535.307a.872.872 0 0 1 .616-.275c.406 0 .6.227.6.567 0 .438-.47.681-.989.681-.438 0-.908-.146-1.297-.47l-.308.616c.324.26.94.487 1.638.487zm7.979-2.87c2.384 0 3.876-1.849 3.876-4.12 0-2.27-1.492-4.101-3.876-4.101-2.383 0-3.875 1.832-3.875 4.102 0 2.27 1.492 4.119 3.875 4.119zm0-1.087c-1.67 0-2.61-1.427-2.61-3.032 0-1.59.94-3.016 2.61-3.016s2.595 1.427 2.595 3.016c0 1.605-.925 3.032-2.595 3.032zm12.75.892-3.487-4.28 3.47-3.552h-1.54l-4.119 4.167v-7.15h-1.216V31h1.216v-2.238l1.298-1.28L154.569 31h1.557zm8.099.195c2.027 0 3.081-1.054 3.081-2.368 0-3.048-4.849-1.913-4.849-3.632 0-.697.665-1.232 1.735-1.232 1.006 0 1.865.421 2.335.989l.568-.843c-.632-.633-1.573-1.136-2.903-1.136-1.864 0-2.918 1.038-2.918 2.254 0 2.903 4.848 1.735 4.848 3.633 0 .778-.649 1.346-1.848 1.346-1.071 0-2.06-.52-2.579-1.12l-.632.876c.794.843 1.881 1.233 3.162 1.233zm11.17-.195v-5.383c0-1.898-1.379-2.643-3.033-2.643-1.281 0-2.286.421-3.129 1.297l.567.843c.698-.746 1.46-1.087 2.4-1.087 1.135 0 1.978.6 1.978 1.654v1.411c-.632-.73-1.524-1.07-2.594-1.07-1.33 0-2.74.827-2.74 2.578 0 1.703 1.41 2.595 2.74 2.595 1.054 0 1.946-.373 2.594-1.087V31h1.217zm-3.373-.681c-1.135 0-1.93-.713-1.93-1.703 0-1.005.795-1.718 1.93-1.718.859 0 1.686.324 2.156.973v1.475c-.47.649-1.297.973-2.156.973zm8.956 3.86c1.914 0 3.73-.812 3.73-3.406v-7.605h-1.217v1.184c-.632-.86-1.572-1.378-2.626-1.378-2.06 0-3.487 1.556-3.487 4.07 0 2.53 1.444 4.053 3.487 4.053 1.102 0 2.059-.6 2.626-1.394v1.119c0 1.718-1.216 2.35-2.513 2.35-1.119 0-1.897-.291-2.546-1.07l-.616.909c.924.908 1.833 1.167 3.162 1.167zm.179-4.152c-1.573 0-2.514-1.265-2.514-2.983 0-1.736.941-2.984 2.514-2.984.972 0 1.913.584 2.334 1.265v3.421c-.421.681-1.362 1.281-2.334 1.281zm2.999-9.178-.6-.519a2.657 2.657 0 0 1-2.237 1.168c-.957 0-1.735-.454-2.254-1.168l-.6.52a3.578 3.578 0 0 0 2.854 1.426 3.5 3.5 0 0 0 2.837-1.427zm6.409 10.346c2.383 0 3.875-1.849 3.875-4.12 0-2.27-1.492-4.101-3.875-4.101-2.384 0-3.876 1.832-3.876 4.102 0 2.27 1.492 4.119 3.876 4.119zm0-1.087c-1.67 0-2.611-1.427-2.611-3.032 0-1.59.941-3.016 2.611-3.016 1.67 0 2.594 1.427 2.594 3.016 0 1.605-.924 3.032-2.594 3.032zm7.074.892V20.184h-1.216V31h1.216zm8.928 0v-7.832h-1.216v5.756c-.454.633-1.362 1.184-2.319 1.184-1.054 0-1.751-.405-1.751-1.784v-5.156h-1.216v5.53c0 1.702.859 2.497 2.497 2.497 1.168 0 2.189-.617 2.789-1.298V31h1.216zm8.931 0v-5.497c0-1.703-.859-2.53-2.497-2.53-1.167 0-2.238.681-2.789 1.33v-1.135h-1.216V31h1.216v-5.724c.454-.632 1.362-1.216 2.319-1.216 1.054 0 1.751.438 1.751 1.816V31h1.216zm3.077.162a.9.9 0 0 0 .892-.892.9.9 0 0 0-.892-.892.9.9 0 0 0-.891.892.9.9 0 0 0 .891.892z" fill="#fff"/><path opacity=".7" d="M378.895 40v-7.337h-.803l-1.837 1.892.55.561 1.177-1.243V40h.913zm6.489 0v-.814h-3.597c2.046-1.617 3.564-2.981 3.564-4.477 0-1.463-1.243-2.156-2.464-2.156-1.034 0-1.991.418-2.552 1.155l.561.583c.429-.55 1.111-.924 1.991-.924.759 0 1.529.407 1.529 1.342 0 1.265-1.43 2.486-4.07 4.565V40h5.038zm2.1-4.18a.61.61 0 0 0 .605-.605.61.61 0 0 0-.605-.605.61.61 0 0 0-.605.605c0 .33.275.605.605.605zm0 4.29a.61.61 0 0 0 .605-.605.61.61 0 0 0-.605-.605.61.61 0 0 0-.605.605c0 .33.275.605.605.605zm4.196.022c1.617 0 2.596-.891 2.596-2.112 0-1.177-1.023-1.749-1.694-1.804.693-.121 1.584-.649 1.584-1.705 0-1.243-1.078-1.958-2.486-1.958-1.133 0-1.98.495-2.508 1.133l.506.572c.539-.583 1.133-.891 1.936-.891.891 0 1.639.44 1.639 1.254 0 .847-.781 1.21-1.705 1.21-.297 0-.638 0-.759-.011v.836c.11-.011.451-.011.759-.011 1.078 0 1.826.385 1.826 1.298 0 .847-.649 1.375-1.716 1.375-.869 0-1.617-.396-2.046-.968l-.539.572c.451.66 1.364 1.21 2.607 1.21zm6.123 0c1.617 0 2.596-.891 2.596-2.112 0-1.177-1.023-1.749-1.694-1.804.693-.121 1.584-.649 1.584-1.705 0-1.243-1.078-1.958-2.486-1.958-1.133 0-1.98.495-2.508 1.133l.506.572c.539-.583 1.133-.891 1.936-.891.891 0 1.639.44 1.639 1.254 0 .847-.781 1.21-1.705 1.21-.297 0-.638 0-.759-.011v.836c.11-.011.451-.011.759-.011 1.078 0 1.826.385 1.826 1.298 0 .847-.649 1.375-1.716 1.375-.869 0-1.617-.396-2.046-.968l-.539.572c.451.66 1.364 1.21 2.607 1.21z" fill="#fff"/><defs><filter id="a" x=".514" y=".757" width="419.972" height="56.972" filterUnits="userSpaceOnUse" color-interpolation-filters="sRGB"><feFlood flood-opacity="0" result="BackgroundImageFix"/><feColorMatrix in="SourceAlpha" values="0 0 0 0 0 0 0 0 0 0 0 0 0 0 0 0 0 0 127 0" result="hardAlpha"/><feOffset dy="3.243"/><feGaussianBlur stdDeviation="3.243"/><feComposite in2="hardAlpha" operator="out"/><feColorMatrix values="0 0 0 0 0 0 0 0 0 0 0 0 0 0 0 0 0 0 0.05 0"/><feBlend in2="BackgroundImageFix" result="effect1_dropShadow_0_1"/><feBlend in="SourceGraphic" in2="effect1_dropShadow_0_1" result="shape"/></filter></defs></svg>