<svg width="116" height="117" fill="none" xmlns="http://www.w3.org/2000/svg"><g opacity=".2" clip-path="url(#a)" fill-rule="evenodd" clip-rule="evenodd" fill="#7C6132"><path d="M98.702 45.721a5.907 5.907 0 0 1 6.626 7.363L96.12 87.45a5.907 5.907 0 0 1-9.42 3.063 2.953 2.953 0 0 1-.41-.403L74.326 75.78a5.907 5.907 0 0 1-1.172-5.314l3.794-14.156a5.906 5.906 0 0 1 3.67-4.016l17.528-6.428c.18-.066.366-.115.556-.145zM78.86 71.994l11.572 13.861 9.173-34.234-16.953 6.218-3.792 14.155zM34.146 24.911l32.898 8.816h.005a12.492 12.492 0 0 1 8.805 15.253v.004l-7.287 27.193-.001.004a12.579 12.579 0 0 1-15.362 8.87l-.004-.002-32.812-8.792h-.004a12.578 12.578 0 0 1-8.87-15.362l.002-.004 7.263-27.108.001-.004a12.579 12.579 0 0 1 15.362-8.869l.004.001zm-1.52 5.708a6.672 6.672 0 0 0-8.144 4.702l-7.259 27.09a6.672 6.672 0 0 0 4.702 8.144l32.795 8.787a6.672 6.672 0 0 0 8.144-4.702l7.282-27.176a6.585 6.585 0 0 0-4.64-8.035l-32.88-8.81z"/></g><defs><clipPath id="a"><path fill="#fff" transform="rotate(15 8.723 93.608)" d="M0 0h94.501v94.501H0z"/></clipPath></defs></svg>