<svg width="101" height="101" fill="none" xmlns="http://www.w3.org/2000/svg"><g opacity=".1" clip-path="url(#a)"><path d="m34.599 61.548 20.862-5.59a2.369 2.369 0 0 0 1.496-1.154c.34-.593.414-1.248.222-1.964-.192-.716-.583-1.246-1.174-1.59-.591-.343-1.242-.42-1.954-.229l-20.863 5.59a2.368 2.368 0 0 0-1.496 1.154c-.34.593-.414 1.247-.222 1.964.192.716.584 1.246 1.174 1.59.591.343 1.243.42 1.955.229zm-2.88-10.744L66.3 41.54a2.368 2.368 0 0 0 1.496-1.154c.34-.593.414-1.248.222-1.964-.192-.716-.583-1.246-1.174-1.59-.59-.343-1.242-.42-1.954-.229l-34.58 9.266a2.369 2.369 0 0 0-1.495 1.153c-.34.593-.414 1.248-.223 1.964.192.717.584 1.246 1.175 1.59.59.344 1.242.42 1.954.23zm-2.878-10.743 34.58-9.266a2.369 2.369 0 0 0 1.495-1.153c.34-.593.415-1.248.223-1.964-.192-.716-.584-1.246-1.175-1.59-.59-.343-1.242-.42-1.954-.23l-34.58 9.266a2.368 2.368 0 0 0-1.495 1.154c-.34.593-.414 1.248-.222 1.964.192.716.583 1.246 1.174 1.59.591.343 1.242.42 1.954.229zm-4.379 46.08L9.67 30.937c-.34-1.267-.153-2.542.56-3.825.712-1.284 1.726-2.101 3.04-2.454L69.123 9.693c1.26-.338 2.532-.133 3.818.615s2.1 1.755 2.439 3.023l11.514 42.973c.34 1.267.14 2.546-.6 3.837-.74 1.29-1.74 2.104-3 2.442L35.656 75.348l-6.539 11.406c-.56.977-1.402 1.395-2.526 1.253-1.123-.142-1.833-.764-2.128-1.866zm3.312-7.353 4.5-7.849 49.692-13.315-11.514-42.973-55.854 14.966 13.176 49.171zM14.598 29.617l13.176 49.171-13.176-49.171z" fill="#7C6132"/></g><defs><clipPath id="a"><path fill="#fff" transform="rotate(-15 80.242 10.564)" d="M0 0h81.633v82.134H0z"/></clipPath></defs></svg>