<svg width="164" height="43" fill="none" xmlns="http://www.w3.org/2000/svg"><path d="m52.201 40.44-.011-13.578c-.006-7.607-4.96-11.214-12.409-11.208-7.449.006-12.348 3.621-12.342 11.228l.012 13.578c2.442 1.486 4.433 1.981 7.689-.007l-.01-12.084c-.003-3.756 2.014-6.213 4.657-6.215 2.691-.002 4.712 2.452 4.715 6.207l.01 12.085c3.151 1.752 4.832 1.713 7.69-.007zM55.084 28.304c.006 7.655 5.105 12.851 12.843 12.845 7.737-.007 12.875-5.21 12.869-12.866-.006-7.607-5.153-12.658-12.89-12.652-7.738.006-12.828 5.066-12.822 12.673zm7.93.042c-.003-3.756 1.965-6.213 4.897-6.215 2.98-.003 4.952 2.451 4.955 6.207.003 3.755-1.965 6.309-4.945 6.311-2.931.002-4.904-2.548-4.907-6.303zM81.448 19.183l6.647 18.434c1.06 2.937 2.935 3.513 5.626 3.51 2.692-.002 4.565-.58 5.62-3.519l6.617-18.445c.768-2.12-1.396-3.562-3.703-3.56-2.355.002-3.651 1.447-4.419 3.615l-4.123 11.51-4.143-11.504c-.77-2.166-2.07-3.609-4.376-3.607-2.307.002-4.517 1.448-3.746 3.566zM124.834 32.002c-.479 2.071-2.881 2.603-4.563 2.604-3.172.003-5-1.73-5.531-4.473l17.205-.014-.001-1.348c-.006-7.848-4.192-13.189-12.554-13.182-8.651.007-13.019 6.173-13.014 12.721.006 6.404 4.24 12.804 12.939 12.797 6.968-.006 11.291-2.754 12.728-9.11l-7.209.005zm-9.953-6.202c.623-2.312 2.255-3.71 4.61-3.711 2.596-.002 4.039 1.393 4.521 3.703l-9.131.008zM149.331 23.75c.001 1.347.964 2.743 3.271 2.741 2.403-.002 2.978-2.073 2.976-3.662-.003-4.38-3.514-7.267-10.05-7.261-7.161.005-10.618 3.812-10.612 11.13l.011 13.722c3.023 2.033 4.718 2.344 7.738-.007l-.011-12.903c-.003-3.9 1.245-5.441 3.696-5.443 1.826-.002 2.981.864 2.981 1.682z" fill="#fff"/><path fill-rule="evenodd" clip-rule="evenodd" d="M11.334 40.62c3.268 2.208 5.117 2.246 8.454-.006l-.014-18.064.235-.236c1.67-1.672 1.72-3.149 1.76-4.363.029-.847.053-1.567.62-2.134.551-.552 1.511-.615 2.592-.685.382-.025.779-.051 1.178-.1 1.307-.038 2.501-.635 3.396-1.531 2.013-2.017 2.01-4.705-.01-6.721-2.02-2.016-4.708-2.016-6.721 0-.895.897-1.49 2.092-1.526 3.399-.048.4-.073.796-.098 1.178-.068 1.081-.13 2.041-.68 2.593-.567.568-1.287.593-2.134.623l-.271.01a36.506 36.506 0 0 0-.185-.198c-.579-.62-1.07-1.145-1.07-1.948-.001-.78.633-1.503 1.348-2.317.252-.288.514-.586.762-.903.898-.951 1.32-2.218 1.318-3.484-.002-2.85-1.906-4.748-4.76-4.746-2.853.003-4.753 1.904-4.75 4.753 0 1.267.424 2.533 1.323 3.482.248.317.511.615.764.902.716.814 1.351 1.535 1.352 2.315 0 .803-.49 1.33-1.067 1.95l-.185.199a41.13 41.13 0 0 0-.272-.01c-.847-.029-1.566-.053-2.134-.62-.552-.551-.614-1.51-.685-2.592-.025-.382-.05-.779-.1-1.178-.037-1.307-.635-2.5-1.53-3.396-2.017-2.013-4.706-2.009-6.722.01-2.016 2.02-2.015 4.708.001 6.721.896.895 2.091 1.49 3.398 1.526.4.048.797.074 1.179.098 1.08.069 2.04.13 2.593.68.567.568.593 1.287.623 2.134.043 1.214.096 2.691 1.767 4.36l.236.236.015 18.064z" fill="#fff"/><path d="m156.26 10.573-1.58.002v-.392l3.591-.003.001.392-1.581.001.004 4.232h-.431l-.004-4.232zM159.265 10.18l.647-.001 1.688 3.877 1.681-3.88h.614l.004 4.623h-.431l-.003-4.075h-.013l-1.76 4.076h-.19l-1.792-4.073h-.013l.003 4.075h-.431l-.004-4.623z" fill="#fff"/></svg>