<svg width="30" height="30" viewBox="0 0 30 30" fill="none" xmlns="http://www.w3.org/2000/svg">
<path fill-rule="evenodd" clip-rule="evenodd" d="M20.1525 2.575C18.82 2.5125 18.3962 2.5 15 2.5C11.6038 2.5 11.18 2.51625 9.8475 2.575C8.515 2.6375 7.61 2.84625 6.8125 3.15625C5.97804 3.46966 5.22209 3.96154 4.5975 4.5975C3.961 5.22165 3.46905 5.97772 3.15625 6.8125C2.84625 7.61 2.6375 8.515 2.575 9.8475C2.5125 11.18 2.5 11.6038 2.5 15C2.5 18.3962 2.51625 18.82 2.575 20.1525C2.6375 21.4838 2.84625 22.3913 3.15625 23.1875C3.46991 24.0218 3.96176 24.7777 4.5975 25.4025C5.22191 26.0387 5.97791 26.5306 6.8125 26.8438C7.61 27.1525 8.51625 27.3625 9.8475 27.425C11.18 27.4875 11.6038 27.5 15 27.5C18.3962 27.5 18.82 27.4837 20.1525 27.425C21.4838 27.3625 22.3913 27.1525 23.1875 26.8438C24.0216 26.5297 24.7775 26.0379 25.4025 25.4025C26.0389 24.7783 26.5308 24.0222 26.8438 23.1875C27.1525 22.39 27.3625 21.4838 27.425 20.1525C27.4875 18.82 27.5 18.3962 27.5 15C27.5 11.6038 27.4837 11.18 27.425 9.8475C27.3625 8.51625 27.1525 7.60875 26.8438 6.8125C26.5299 5.97824 26.0381 5.22237 25.4025 4.5975C24.7075 3.90375 24.0125 3.47375 23.1875 3.15625C22.39 2.84625 21.4838 2.6375 20.1525 2.575ZM15.0002 5.00015C11.9077 5.00015 11.4027 5.0089 9.9639 5.07265C8.9839 5.1189 8.3264 5.25015 7.7164 5.48765C7.1739 5.69765 6.78265 5.9489 6.3664 6.3664C5.97516 6.7444 5.67434 7.20588 5.4864 7.7164C5.2489 8.3289 5.11765 8.98515 5.07265 9.9639C5.00765 11.3439 5.00015 11.8264 5.00015 15.0002C5.00015 18.0927 5.0089 18.5977 5.07265 20.0364C5.1189 21.0152 5.25015 21.6739 5.4864 22.2827C5.6989 22.8264 5.9489 23.2177 6.3639 23.6327C6.78515 24.0527 7.1764 24.3039 7.7139 24.5114C8.3314 24.7502 8.9889 24.8827 9.9639 24.9277C11.3439 24.9927 11.8264 25.0002 15.0002 25.0002C18.0927 25.0002 18.5977 24.9914 20.0364 24.9277C21.0139 24.8814 21.6727 24.7502 22.2827 24.5139C22.8239 24.3027 23.2177 24.0514 23.6327 23.6364C24.0539 23.2152 24.3052 22.8239 24.5127 22.2864C24.7502 21.6702 24.8827 21.0114 24.9277 20.0364C24.9927 18.6564 25.0002 18.1739 25.0002 15.0002C25.0002 11.9077 24.9914 11.4027 24.9277 9.9639C24.8814 8.9864 24.7502 8.3264 24.5127 7.7164C24.3243 7.20641 24.024 6.7451 23.6339 6.3664C23.2561 5.97496 22.7945 5.67411 22.2839 5.4864C21.6714 5.2489 21.0139 5.11765 20.0364 5.07265C18.6564 5.00765 18.1739 5.00015 15.0002 5.00015ZM21.5627 10.0002C22.4256 10.0002 23.1252 9.3006 23.1252 8.43765C23.1252 7.57471 22.4256 6.87515 21.5627 6.87515C20.6997 6.87515 20.0002 7.57471 20.0002 8.43765C20.0002 9.3006 20.6997 10.0002 21.5627 10.0002ZM15.0002 8.75015C18.4519 8.75015 21.2502 11.5484 21.2502 15.0002C21.2502 18.4519 18.4519 21.2502 15.0002 21.2502C11.5484 21.2502 8.75015 18.4519 8.75015 15.0002C8.75015 11.5484 11.5484 8.75015 15.0002 8.75015ZM15 11.25C12.9289 11.25 11.25 12.9289 11.25 15C11.25 17.0711 12.9289 18.75 15 18.75C17.0711 18.75 18.75 17.0711 18.75 15C18.75 12.9289 17.0711 11.25 15 11.25Z" fill="white"/>
</svg>
