<svg width="227" height="251" fill="none" xmlns="http://www.w3.org/2000/svg"><rect width="119.162" height="119.162" rx="59.581" fill="#F59653"/><path d="M46.547 64.608h15.764c.497 0 .92-.176 1.272-.527.352-.352.528-.797.528-1.335 0-.538-.176-.982-.528-1.334-.351-.352-.796-.528-1.334-.528H46.485c-.497 0-.92.176-1.272.528-.352.352-.528.796-.528 1.334s.176.983.528 1.335c.351.351.796.527 1.334.527zm0-8.068h26.129c.496 0 .92-.176 1.272-.528.352-.351.528-.796.528-1.334s-.176-.983-.528-1.334c-.352-.352-.796-.528-1.334-.528h-26.13c-.496 0-.92.176-1.271.528-.352.351-.528.796-.528 1.334s.176.983.528 1.334c.351.352.796.528 1.334.528zm0-8.068h26.129c.496 0 .92-.176 1.272-.528.352-.352.528-.796.528-1.334s-.176-.983-.528-1.335c-.352-.351-.796-.527-1.334-.527h-26.13c-.496 0-.92.176-1.271.527-.352.352-.528.797-.528 1.335 0 .538.176.982.528 1.334.351.352.796.528 1.334.528zM34.755 79.938V38.479c0-.951.372-1.81 1.117-2.575.745-.766 1.614-1.148 2.607-1.148h42.203c.952 0 1.81.382 2.576 1.148.765.765 1.148 1.624 1.148 2.575v32.273c0 .952-.383 1.81-1.148 2.576-.766.766-1.624 1.148-2.576 1.148H44.685l-6.765 6.765c-.58.58-1.252.714-2.017.404-.765-.31-1.148-.88-1.148-1.707zm3.724-4.53 4.654-4.656h37.549V38.48H38.479v36.928zm0-36.929v36.928V38.48z" fill="#FFEEEC"/><rect x="59.519" y="83.963" width="167.037" height="167.037" rx="83.519" fill="#FF5841"/><path fill-rule="evenodd" clip-rule="evenodd" d="M174.846 146.99a5.219 5.219 0 0 1 7.34 4.77v31.443a5.216 5.216 0 0 1-2.375 4.377 5.229 5.229 0 0 1-4.965.393 2.607 2.607 0 0 1-.442-.251l-13.492-9.497a5.215 5.215 0 0 1-2.215-4.267v-12.953a5.213 5.213 0 0 1 2.215-4.267l13.492-9.497c.139-.098.287-.182.442-.251zm-10.929 26.967 13.049 9.186V151.82l-13.049 9.186v12.951zM114.976 143.992h30.105a11.04 11.04 0 0 1 11.006 11.006v24.888a11.118 11.118 0 0 1-11.085 11.085h-30.029a11.114 11.114 0 0 1-11.085-11.085v-24.809a11.114 11.114 0 0 1 11.085-11.085h.003zm.008 5.22a5.894 5.894 0 0 0-5.876 5.876v24.787a5.894 5.894 0 0 0 5.876 5.876h30.006a5.896 5.896 0 0 0 5.877-5.877V155.01a5.82 5.82 0 0 0-5.799-5.798h-30.084z" fill="#fff"/><rect x="170.877" y="83.963" width="55.679" height="55.679" rx="27.84" fill="#fff"/><path d="M202.568 119.403v-18.569h-4.148l-6.487 6.403 2.729 2.867 3.118-3.145v12.444h4.788z" fill="#FF5841"/></svg>