<svg width="30" height="30" viewBox="0 0 30 30" fill="none" xmlns="http://www.w3.org/2000/svg">
<path d="M27.7026 7.07008C26.7483 7.4922 25.7363 7.76943 24.7001 7.89258C25.7923 7.23938 26.6098 6.21135 27.0001 5.00008C25.9751 5.61008 24.8514 6.03758 23.6801 6.26883C22.0624 4.53798 19.483 4.11145 17.3942 5.2294C15.3054 6.34736 14.2297 8.73027 14.7726 11.0363C10.5689 10.8256 6.65231 8.84008 3.99763 5.57383C3.53299 6.3719 3.28882 7.27912 3.29013 8.20258C3.29013 10.0151 4.21263 11.6163 5.61513 12.5538C4.78514 12.5277 3.97342 12.3036 3.24763 11.9001V11.9651C3.24814 14.4539 5.00202 16.5977 7.44138 17.0913C6.6709 17.3001 5.86301 17.3309 5.07888 17.1813C5.76279 19.3116 7.72569 20.7711 9.96263 20.8126C7.77255 22.5326 4.98855 23.3115 2.22388 22.9776C4.6135 24.5144 7.39525 25.3302 10.2364 25.3276C19.8526 25.3276 25.1114 17.3613 25.1114 10.4526C25.1114 10.2276 25.1051 10.0001 25.0951 9.77758C26.1187 9.03779 27.0021 8.12136 27.7039 7.07133L27.7026 7.07008Z" fill="white"/>
</svg>
